<svg width="1547" height="836" xmlns="http://www.w3.org/2000/svg" xmlns:xlink="http://www.w3.org/1999/xlink" xml:space="preserve" overflow="hidden"><g transform="translate(-660 -1017)"><rect x="1326.5" y="1207.5" width="61.9999" height="314" stroke="#163E64" stroke-width="6.875" stroke-miterlimit="8" fill="#C1E5F5"/><rect x="686.5" y="1207.5" width="61.9999" height="314" stroke="#80350E" stroke-width="6.875" stroke-miterlimit="8" fill="#FBE3D6"/><rect x="879.5" y="1207.5" width="61.9999" height="314" stroke="#275317" stroke-width="6.875" stroke-miterlimit="8" fill="#D9F2D0"/><rect x="941.5" y="1207.5" width="62.9999" height="314" stroke="#275317" stroke-width="6.875" stroke-miterlimit="8" fill="#D9F2D0"/><rect x="1106.5" y="1207.5" width="61.9999" height="314" stroke="#275317" stroke-width="6.875" stroke-miterlimit="8" fill="#D9F2D0"/><path d="M1091.35 1360.52C1093.22 1360.52 1094.77 1361.17 1096.03 1362.48 1097.28 1363.78 1097.91 1365.44 1097.91 1367.45 1097.91 1369.45 1097.28 1371.11 1096.03 1372.41 1094.77 1373.72 1093.22 1374.37 1091.35 1374.37 1089.49 1374.37 1087.93 1373.72 1086.68 1372.41 1085.43 1371.11 1084.8 1369.45 1084.8 1367.45 1084.8 1365.44 1085.43 1363.78 1086.68 1362.48 1087.93 1361.17 1089.49 1360.52 1091.35 1360.52ZM1058.8 1360.52C1060.67 1360.52 1062.22 1361.17 1063.48 1362.48 1064.73 1363.78 1065.36 1365.44 1065.36 1367.45 1065.36 1369.45 1064.73 1371.11 1063.48 1372.41 1062.22 1373.72 1060.67 1374.37 1058.8 1374.37 1056.94 1374.37 1055.38 1373.72 1054.13 1372.41 1052.88 1371.11 1052.25 1369.45 1052.25 1367.45 1052.25 1365.44 1052.88 1363.78 1054.13 1362.48 1055.38 1361.17 1056.94 1360.52 1058.8 1360.52ZM1026.26 1360.52C1028.12 1360.52 1029.68 1361.17 1030.93 1362.48 1032.18 1363.78 1032.81 1365.44 1032.81 1367.45 1032.81 1369.45 1032.18 1371.11 1030.93 1372.41 1029.68 1373.72 1028.12 1374.37 1026.26 1374.37 1024.39 1374.37 1022.84 1373.72 1021.58 1372.41 1020.33 1371.11 1019.7 1369.45 1019.7 1367.45 1019.7 1365.44 1020.33 1363.78 1021.58 1362.48 1022.84 1361.17 1024.39 1360.52 1026.26 1360.52Z" fill-rule="evenodd"/><text fill="#000000" fill-opacity="0" font-family="Arial,Arial_MSFontService,sans-serif" font-size="13.8574" x="1019.7" y="1372.64">â‹¯</text><path d="M857.5 1379.25 803 1379.25 803 1396.5 768.5 1362 803 1327.5 803 1344.75 857.5 1344.75Z" stroke="#042433" stroke-width="6.875" stroke-miterlimit="8" fill="#156082" fill-rule="evenodd"/><path d="M878.5 1192.5C878.5 1174.55 892.677 1160 910.165 1160L991.835 1160C1009.32 1160 1023.5 1145.45 1023.5 1127.5 1023.5 1145.45 1037.68 1160 1055.17 1160L1136.83 1160C1154.32 1160 1168.5 1174.55 1168.5 1192.5" stroke="#000000" stroke-width="4.58333" stroke-miterlimit="8" fill="none" fill-rule="evenodd"/><text font-family="Cambria Math,Cambria Math_MSFontService,sans-serif" font-weight="400" font-size="46" transform="matrix(1 0 0 1 901.033 1092)">ğ‘š</text><text font-family="Arial,Arial_MSFontService,sans-serif" font-weight="400" font-size="46" transform="matrix(1 0 0 1 952.802 1092)">neighbors</text><path d="M1350.34 1567.23 1354.85 1567.23 1351.55 1581.86C1351.28 1583.05 1351.07 1584.07 1350.92 1584.94 1350.76 1585.81 1350.69 1586.6 1350.69 1587.32 1350.69 1588.25 1350.93 1588.95 1351.43 1589.44 1351.92 1589.92 1352.62 1590.16 1353.53 1590.16 1354.59 1590.16 1355.74 1589.6 1356.98 1588.47 1358.23 1587.34 1359.34 1585.93 1360.33 1584.23 1361.31 1582.53 1361.95 1581.02 1362.23 1579.72L1364.89 1567.23 1369.54 1567.23 1365.73 1584.23C1365.31 1586.07 1365.11 1587.4 1365.11 1588.2 1365.11 1588.92 1365.22 1589.44 1365.46 1589.76 1365.69 1590.08 1366.06 1590.24 1366.56 1590.24 1366.97 1590.24 1367.47 1590.08 1368.05 1589.76 1368.63 1589.44 1369.28 1588.87 1370 1588.07L1371.5 1589.57C1370.5 1590.56 1369.61 1591.32 1368.83 1591.85 1368.05 1592.39 1367.34 1592.77 1366.69 1593 1366.05 1593.22 1365.35 1593.33 1364.6 1593.33 1363.43 1593.33 1362.53 1592.99 1361.89 1592.3 1361.24 1591.61 1360.92 1590.65 1360.92 1589.41 1360.92 1588.41 1361.15 1587.33 1361.62 1586.19L1361.32 1586.03C1359.66 1588.5 1358.12 1590.29 1356.7 1591.41 1355.29 1592.53 1353.83 1593.09 1352.33 1593.09 1351.57 1593.09 1350.89 1592.97 1350.27 1592.73 1349.65 1592.49 1349.01 1592.02 1348.35 1591.34 1348.14 1592.42 1347.94 1593.86 1347.77 1595.68 1347.6 1597.5 1347.52 1599.13 1347.52 1600.58 1347.52 1601.12 1347.54 1601.55 1347.57 1601.87L1347.2 1603.67 1343.7 1603.67 1342.39 1602.06C1343.19 1599.09 1343.95 1596.04 1344.64 1592.9Z" fill-rule="evenodd"/><text fill="#000000" fill-opacity="0" font-family="Arial,Arial_MSFontService,sans-serif" font-size="36.4429" x="1342.39" y="1599.12">ğœ‡</text><path d="M719.914 1570.85C717.515 1570.93 715.366 1571.62 713.468 1572.93 711.571 1574.25 710.098 1576.02 709.051 1578.24 708.003 1580.46 707.48 1582.92 707.48 1585.62 707.48 1587.02 707.708 1588.14 708.164 1588.99 708.621 1589.84 709.189 1590.43 709.87 1590.75 710.55 1591.08 711.284 1591.24 712.072 1591.24 713.88 1591.24 715.447 1590.65 716.772 1589.46 718.096 1588.28 719.166 1586.48 719.981 1584.07 720.795 1581.65 721.203 1579.3 721.203 1577.03 721.203 1574.58 720.773 1572.52 719.914 1570.85ZM724.049 1567.23 732.589 1567.23 731.784 1570.77 723.002 1570.77 722.948 1570.99C723.969 1572.21 724.703 1573.43 725.15 1574.67 725.598 1575.9 725.822 1577.25 725.822 1578.72 725.822 1581.39 725.249 1583.86 724.103 1586.15 722.957 1588.43 721.355 1590.2 719.296 1591.45 717.237 1592.7 714.91 1593.33 712.314 1593.33 709.359 1593.33 707.108 1592.54 705.559 1590.95 704.011 1589.37 703.236 1587.13 703.236 1584.23 703.236 1582.24 703.536 1580.36 704.136 1578.57 704.736 1576.79 705.622 1575.15 706.795 1573.66 707.967 1572.16 709.297 1570.95 710.783 1570.02 712.269 1569.09 714.041 1568.39 716.1 1567.93 718.159 1567.46 720.809 1567.23 724.049 1567.23Z" fill-rule="evenodd"/><text fill="#000000" fill-opacity="0" font-family="Arial,Arial_MSFontService,sans-serif" font-size="26.1035" x="703.236" y="1590.07">ğœ</text><path d="M1014.99 1556.24 1033.66 1556.24 1031.43 1564.49 1028.93 1564.49C1028.88 1563.06 1028.79 1562.01 1028.68 1561.36 1028.56 1560.71 1028.4 1560.26 1028.21 1560.02 1028.01 1559.78 1027.78 1559.61 1027.51 1559.53 1027.24 1559.45 1026.76 1559.41 1026.08 1559.41L1018.03 1559.41 1015.18 1572.6 1028.21 1572.55 1027.67 1574.85 1024.36 1576.17 1014.43 1576.04 1012.82 1583.5C1012.55 1584.77 1012.21 1585.91 1011.8 1586.93 1011.38 1587.94 1010.87 1588.84 1010.24 1589.63 1009.61 1590.41 1008.78 1591.12 1007.75 1591.75 1006.73 1592.37 1005.78 1592.79 1004.92 1593.01 1004.06 1593.22 1003.15 1593.33 1002.18 1593.33 1000.82 1593.33 999.604 1592.95 998.53 1592.19 997.456 1591.43 996.498 1590.27 995.656 1588.71L999.309 1586.62C1000.06 1588.1 1000.79 1589.2 1001.48 1589.91 1002.18 1590.61 1002.95 1590.97 1003.79 1590.97 1004.22 1590.97 1004.65 1590.88 1005.08 1590.71 1005.51 1590.54 1005.9 1590.21 1006.25 1589.71 1006.6 1589.2 1006.9 1588.5 1007.16 1587.58 1007.42 1586.67 1007.77 1585.19 1008.2 1583.15L1011.64 1566.5C1012.23 1563.6 1013.13 1561.33 1014.35 1559.68L1014.29 1559.41C1011.32 1559.41 1009.07 1559.55 1007.54 1559.82 1006.01 1560.08 1004.91 1560.54 1004.24 1561.19 1003.57 1561.83 1003.23 1562.76 1003.23 1563.98 1003.23 1564.89 1003.54 1566 1004.17 1567.31L1000.03 1568.92C999.64 1568.28 999.358 1567.67 999.188 1567.11 999.018 1566.54 998.933 1565.92 998.933 1565.24 998.933 1564.49 999.157 1563.73 999.604 1562.96 1000.12 1562.03 1000.98 1561.08 1002.18 1560.12 1003.38 1559.17 1004.61 1558.38 1005.86 1557.76 1007.11 1557.14 1008.48 1556.73 1009.97 1556.51 1011.13 1556.33 1012.81 1556.24 1014.99 1556.24Z" fill-rule="evenodd"/><text fill="#000000" fill-opacity="0" font-family="Arial,Arial_MSFontService,sans-serif" font-size="37.0874" x="995.656" y="1588.7">â„±</text><path d="M1040.51 1584.38 1041.46 1584.38 1038.57 1597.39C1038.39 1598.16 1038.26 1598.77 1038.19 1599.23 1038.12 1599.68 1038.08 1600.09 1038.08 1600.46 1038.08 1600.95 1038.19 1601.31 1038.39 1601.53 1038.59 1601.75 1038.89 1601.87 1039.3 1601.87 1039.53 1601.87 1039.76 1601.82 1040 1601.73 1040.23 1601.64 1040.48 1601.49 1040.75 1601.3 1041.02 1601.1 1041.31 1600.85 1041.63 1600.55 1041.95 1600.24 1042.3 1599.87 1042.69 1599.44L1044.02 1600.73C1043.34 1601.42 1042.73 1602.01 1042.18 1602.48 1041.62 1602.96 1041.1 1603.34 1040.6 1603.64 1040.11 1603.94 1039.62 1604.16 1039.15 1604.29 1038.67 1604.42 1038.17 1604.48 1037.64 1604.48 1037.14 1604.48 1036.69 1604.39 1036.3 1604.21 1035.9 1604.03 1035.56 1603.78 1035.27 1603.46 1034.99 1603.14 1034.76 1602.76 1034.61 1602.31 1034.45 1601.87 1034.37 1601.38 1034.37 1600.85 1034.37 1600.42 1034.43 1599.89 1034.53 1599.25 1034.63 1598.61 1034.77 1597.92 1034.93 1597.17 1035.09 1596.42 1035.27 1595.63 1035.47 1594.81 1035.66 1593.99 1035.85 1593.18 1036.04 1592.37 1036.23 1591.57 1036.4 1590.79 1036.55 1590.04 1036.7 1589.29 1036.81 1588.61 1036.87 1588 1036.9 1587.89 1036.91 1587.79 1036.91 1587.7 1036.91 1587.6 1036.91 1587.51 1036.91 1587.43 1036.89 1586.92 1036.71 1586.55 1036.38 1586.32 1036.04 1586.08 1035.45 1585.95 1034.61 1585.93L1034.84 1584.6ZM1039.37 1576.51 1043.28 1576.51 1042.32 1580.71 1038.46 1580.71Z" fill-rule="evenodd"/><text fill="#000000" fill-opacity="0" font-family="Arial,Arial_MSFontService,sans-serif" font-size="27.9688" x="1034.37" y="1600.99">ğ‘–</text><path d="M1625.5 1614.5C1625.5 1631.9 1600.7 1646 1570.11 1646L1225.54 1646C1194.95 1646 1170.15 1660.1 1170.15 1677.5 1170.15 1660.1 1145.35 1646 1114.76 1646L767.893 1646C737.3 1646 712.5 1631.9 712.5 1614.5" stroke="#000000" stroke-width="4.58333" stroke-miterlimit="8" fill="none" fill-rule="evenodd"/><path d="M953.316 1756.33 971.981 1756.33 969.752 1764.58 967.254 1764.58C967.201 1763.15 967.116 1762.1 966.999 1761.45 966.883 1760.8 966.726 1760.35 966.529 1760.11 966.332 1759.87 966.1 1759.7 965.831 1759.62 965.562 1759.54 965.088 1759.5 964.408 1759.5L956.351 1759.5 953.504 1772.69 966.529 1772.64 965.992 1774.94 962.689 1776.26 952.752 1776.13 951.141 1783.59C950.872 1784.86 950.532 1786 950.121 1787.02 949.709 1788.03 949.19 1788.93 948.563 1789.72 947.936 1790.5 947.108 1791.21 946.079 1791.84 945.049 1792.46 944.105 1792.88 943.246 1793.1 942.386 1793.31 941.473 1793.42 940.506 1793.42 939.146 1793.42 937.928 1793.04 936.854 1792.28 935.78 1791.52 934.822 1790.36 933.98 1788.8L937.633 1786.71C938.385 1788.19 939.11 1789.29 939.808 1790 940.506 1790.7 941.276 1791.06 942.118 1791.06 942.547 1791.06 942.977 1790.97 943.407 1790.8 943.836 1790.63 944.226 1790.3 944.575 1789.8 944.924 1789.29 945.228 1788.59 945.488 1787.67 945.748 1786.76 946.092 1785.28 946.522 1783.24L949.959 1766.59C950.55 1763.69 951.454 1761.42 952.672 1759.77L952.618 1759.5C949.646 1759.5 947.395 1759.64 945.864 1759.91 944.333 1760.17 943.232 1760.63 942.561 1761.28 941.889 1761.92 941.554 1762.85 941.554 1764.07 941.554 1764.98 941.867 1766.09 942.494 1767.4L938.358 1769.01C937.964 1768.37 937.682 1767.76 937.512 1767.2 937.342 1766.63 937.257 1766.01 937.257 1765.33 937.257 1764.58 937.481 1763.82 937.928 1763.05 938.447 1762.12 939.307 1761.17 940.506 1760.21 941.706 1759.26 942.932 1758.47 944.185 1757.85 945.439 1757.23 946.808 1756.82 948.294 1756.6 949.458 1756.42 951.132 1756.33 953.316 1756.33Z" fill-rule="evenodd"/><text fill="#000000" fill-opacity="0" font-family="Arial,Arial_MSFontService,sans-serif" font-size="37.0874" x="933.98" y="1788.79">â„±</text><path d="M949.305 1745.11 958.785 1749.97 959.08 1749.97 968.721 1745.11 969.769 1746.64 960.584 1753.43 956.986 1753.43 948.258 1746.64Z" fill-rule="evenodd"/><text fill="#000000" fill-opacity="0" font-family="Arial,Arial_MSFontService,sans-serif" font-size="8.3252" x="948.258" y="1752.39">à·˜</text><path d="M978.83 1784.47 979.787 1784.47 976.897 1797.48C976.715 1798.25 976.588 1798.86 976.516 1799.32 976.444 1799.77 976.409 1800.18 976.409 1800.55 976.409 1801.04 976.509 1801.4 976.711 1801.62 976.913 1801.84 977.216 1801.96 977.62 1801.96 977.854 1801.96 978.088 1801.91 978.323 1801.82 978.557 1801.73 978.808 1801.58 979.075 1801.39 979.341 1801.19 979.634 1800.94 979.953 1800.64 980.273 1800.33 980.627 1799.96 981.018 1799.53L982.346 1800.82C981.669 1801.51 981.054 1802.1 980.5 1802.57 979.947 1803.05 979.423 1803.43 978.928 1803.73 978.433 1804.03 977.948 1804.25 977.473 1804.38 976.998 1804.51 976.493 1804.57 975.959 1804.57 975.465 1804.57 975.019 1804.48 974.621 1804.3 974.224 1804.12 973.883 1803.87 973.596 1803.55 973.31 1803.23 973.088 1802.85 972.932 1802.4 972.776 1801.96 972.698 1801.47 972.698 1800.94 972.698 1800.51 972.75 1799.98 972.854 1799.34 972.958 1798.7 973.091 1798.01 973.254 1797.26 973.417 1796.51 973.596 1795.72 973.791 1794.9 973.987 1794.08 974.179 1793.27 974.368 1792.46 974.556 1791.66 974.726 1790.88 974.875 1790.13 975.025 1789.38 975.133 1788.7 975.198 1788.09 975.224 1787.98 975.237 1787.88 975.237 1787.79 975.237 1787.69 975.237 1787.6 975.237 1787.52 975.211 1787.01 975.032 1786.64 974.7 1786.41 974.368 1786.17 973.778 1786.04 972.932 1786.02L973.166 1784.69ZM977.698 1776.6 981.604 1776.6 980.647 1780.8 976.78 1780.8Z" fill-rule="evenodd"/><text fill="#000000" fill-opacity="0" font-family="Arial,Arial_MSFontService,sans-serif" font-size="27.9688" x="972.698" y="1801.08">ğ‘–</text><path d="M1006.73 1781.07 1039.82 1781.07 1039.82 1784.64 1006.73 1784.64ZM1006.73 1769.92 1039.82 1769.92 1039.82 1773.49 1006.73 1773.49Z" fill-rule="evenodd"/><text fill="#000000" fill-opacity="0" font-family="Arial,Arial_MSFontService,sans-serif" font-size="14.7168" x="1006.73" y="1782.8">=</text><path d="M1076.1 1769.01C1074.46 1769.01 1072.93 1769.74 1071.51 1771.21 1070.1 1772.68 1068.97 1774.67 1068.11 1777.17 1067.26 1779.68 1066.84 1782.25 1066.84 1784.88 1066.84 1786.69 1067.11 1788.03 1067.64 1788.91 1068.18 1789.79 1068.99 1790.23 1070.06 1790.23 1071.6 1790.23 1073.19 1789.32 1074.82 1787.51 1076.44 1785.71 1077.96 1783.19 1079.35 1779.97 1079.66 1778.1 1079.81 1776.46 1079.81 1775.03 1079.81 1772.98 1079.51 1771.47 1078.91 1770.49 1078.31 1769.5 1077.38 1769.01 1076.1 1769.01ZM1076.29 1766.89C1078.3 1766.89 1079.87 1767.51 1081.01 1768.77 1082.14 1770.02 1082.77 1771.86 1082.9 1774.27L1083.14 1774.25 1086.66 1767.32 1091.3 1767.32 1091.04 1768.69C1088.82 1771.7 1086.2 1775.39 1083.19 1779.78 1082.75 1783.2 1082.52 1785.62 1082.52 1787.03 1082.52 1788.21 1082.66 1789.06 1082.93 1789.57 1083.19 1790.08 1083.64 1790.33 1084.27 1790.33 1084.77 1790.33 1085.34 1790.12 1085.97 1789.7 1086.61 1789.28 1087.29 1788.63 1088.03 1787.76L1089.59 1789.21C1088.08 1790.82 1086.77 1791.92 1085.66 1792.52 1084.55 1793.12 1083.41 1793.42 1082.23 1793.42 1079.85 1793.42 1078.66 1791.68 1078.66 1788.21 1078.66 1787.44 1078.71 1786.59 1078.82 1785.66L1078.55 1785.66C1076.7 1788.42 1074.96 1790.4 1073.31 1791.61 1071.66 1792.82 1069.9 1793.42 1068.02 1793.42 1066.71 1793.42 1065.61 1793.05 1064.72 1792.29 1063.82 1791.54 1063.16 1790.54 1062.73 1789.3 1062.3 1788.05 1062.09 1786.7 1062.09 1785.23 1062.09 1782.03 1062.69 1778.99 1063.91 1776.11 1065.13 1773.24 1066.82 1770.98 1068.99 1769.35 1071.15 1767.71 1073.59 1766.89 1076.29 1766.89Z" fill-rule="evenodd"/><text fill="#000000" fill-opacity="0" font-family="Arial,Arial_MSFontService,sans-serif" font-size="26.5332" x="1062.09" y="1790.1">ğ›¼</text><path d="M1122.67 1714.72 1141.34 1714.72 1139.11 1722.96 1136.61 1722.96C1136.55 1721.53 1136.47 1720.49 1136.35 1719.83 1136.24 1719.18 1136.08 1718.73 1135.88 1718.49 1135.69 1718.25 1135.45 1718.09 1135.19 1718.01 1134.92 1717.93 1134.44 1717.89 1133.76 1717.89L1125.71 1717.89 1122.86 1731.07 1135.88 1731.02 1135.35 1733.33 1132.04 1734.64 1122.11 1734.51 1120.5 1741.98C1120.23 1743.25 1119.89 1744.39 1119.47 1745.4 1119.06 1746.41 1118.54 1747.31 1117.92 1748.1 1117.29 1748.89 1116.46 1749.59 1115.43 1750.22 1114.4 1750.85 1113.46 1751.27 1112.6 1751.48 1111.74 1751.7 1110.83 1751.8 1109.86 1751.8 1108.5 1751.8 1107.28 1751.42 1106.21 1750.66 1105.13 1749.9 1104.18 1748.74 1103.33 1747.19L1106.99 1745.09C1107.74 1746.58 1108.46 1747.67 1109.16 1748.38 1109.86 1749.09 1110.63 1749.44 1111.47 1749.44 1111.9 1749.44 1112.33 1749.36 1112.76 1749.19 1113.19 1749.02 1113.58 1748.68 1113.93 1748.18 1114.28 1747.68 1114.58 1746.97 1114.84 1746.06 1115.1 1745.14 1115.45 1743.67 1115.88 1741.63L1119.31 1724.98C1119.9 1722.08 1120.81 1719.8 1122.03 1718.15L1121.97 1717.89C1119 1717.89 1116.75 1718.02 1115.22 1718.29 1113.69 1718.56 1112.59 1719.01 1111.91 1719.66 1111.24 1720.3 1110.91 1721.23 1110.91 1722.45 1110.91 1723.36 1111.22 1724.47 1111.85 1725.78L1107.71 1727.39C1107.32 1726.75 1107.04 1726.14 1106.87 1725.58 1106.7 1725.02 1106.61 1724.39 1106.61 1723.71 1106.61 1722.96 1106.83 1722.2 1107.28 1721.43 1107.8 1720.5 1108.66 1719.56 1109.86 1718.6 1111.06 1717.64 1112.29 1716.85 1113.54 1716.23 1114.79 1715.62 1116.16 1715.2 1117.65 1714.99 1118.81 1714.81 1120.49 1714.72 1122.67 1714.72Z" fill-rule="evenodd"/><text fill="#000000" fill-opacity="0" font-family="Arial,Arial_MSFontService,sans-serif" font-size="37.0874" x="1103.33" y="1747.17">â„±</text><path d="M1148.18 1742.86 1149.14 1742.86 1146.25 1755.87C1146.07 1756.63 1145.94 1757.25 1145.87 1757.7 1145.8 1758.16 1145.76 1758.57 1145.76 1758.93 1145.76 1759.43 1145.86 1759.79 1146.07 1760.01 1146.27 1760.23 1146.57 1760.34 1146.97 1760.34 1147.21 1760.34 1147.44 1760.29 1147.68 1760.2 1147.91 1760.11 1148.16 1759.97 1148.43 1759.77 1148.7 1759.58 1148.99 1759.33 1149.31 1759.02 1149.63 1758.71 1149.98 1758.35 1150.37 1757.92L1151.7 1759.21C1151.02 1759.9 1150.41 1760.48 1149.85 1760.95 1149.3 1761.43 1148.78 1761.82 1148.28 1762.12 1147.79 1762.42 1147.3 1762.63 1146.83 1762.76 1146.35 1762.89 1145.85 1762.96 1145.31 1762.96 1144.82 1762.96 1144.37 1762.86 1143.98 1762.68 1143.58 1762.5 1143.24 1762.25 1142.95 1761.93 1142.66 1761.61 1142.44 1761.23 1142.29 1760.79 1142.13 1760.35 1142.05 1759.86 1142.05 1759.32 1142.05 1758.89 1142.1 1758.36 1142.21 1757.72 1142.31 1757.08 1142.45 1756.39 1142.61 1755.64 1142.77 1754.89 1142.95 1754.11 1143.15 1753.29 1143.34 1752.47 1143.53 1751.65 1143.72 1750.85 1143.91 1750.04 1144.08 1749.26 1144.23 1748.51 1144.38 1747.76 1144.49 1747.08 1144.55 1746.47 1144.58 1746.37 1144.59 1746.27 1144.59 1746.17 1144.59 1746.07 1144.59 1745.98 1144.59 1745.91 1144.56 1745.4 1144.39 1745.03 1144.05 1744.79 1143.72 1744.56 1143.13 1744.43 1142.29 1744.4L1142.52 1743.07ZM1147.05 1734.99 1150.96 1734.99 1150 1739.19 1146.13 1739.19Z" fill-rule="evenodd"/><text fill="#000000" fill-opacity="0" font-family="Arial,Arial_MSFontService,sans-serif" font-size="27.9688" x="1142.05" y="1759.46">ğ‘–</text><path d="M1173.02 1733.87 1206.1 1733.87 1206.1 1737.44 1173.02 1737.44Z" fill-rule="evenodd"/><text fill="#000000" fill-opacity="0" font-family="Arial,Arial_MSFontService,sans-serif" font-size="3.57178" x="1173.02" y="1736.99">âˆ’</text><path d="M1230.83 1725.7 1235.34 1725.7 1232.04 1740.34C1231.77 1741.52 1231.56 1742.54 1231.41 1743.41 1231.26 1744.28 1231.18 1745.07 1231.18 1745.79 1231.18 1746.72 1231.43 1747.43 1231.92 1747.91 1232.41 1748.39 1233.11 1748.64 1234.03 1748.64 1235.08 1748.64 1236.23 1748.07 1237.48 1746.94 1238.72 1745.82 1239.84 1744.4 1240.82 1742.7 1241.81 1741 1242.44 1739.5 1242.73 1738.19L1245.39 1725.7 1250.03 1725.7 1246.22 1742.7C1245.81 1744.54 1245.6 1745.87 1245.6 1746.68 1245.6 1747.39 1245.72 1747.91 1245.95 1748.23 1246.18 1748.56 1246.55 1748.72 1247.05 1748.72 1247.46 1748.72 1247.96 1748.56 1248.54 1748.23 1249.12 1747.91 1249.77 1747.35 1250.49 1746.54L1251.99 1748.05C1250.99 1749.03 1250.1 1749.79 1249.32 1750.33 1248.54 1750.86 1247.83 1751.25 1247.19 1751.47 1246.54 1751.69 1245.84 1751.8 1245.09 1751.8 1243.93 1751.8 1243.02 1751.46 1242.38 1750.77 1241.73 1750.08 1241.41 1749.12 1241.41 1747.88 1241.41 1746.88 1241.64 1745.81 1242.11 1744.66L1241.81 1744.5C1240.15 1746.97 1238.61 1748.77 1237.2 1749.88 1235.78 1751 1234.32 1751.56 1232.82 1751.56 1232.07 1751.56 1231.38 1751.44 1230.76 1751.2 1230.15 1750.96 1229.51 1750.5 1228.84 1749.82 1228.63 1750.89 1228.44 1752.34 1228.27 1754.15 1228.1 1755.97 1228.01 1757.61 1228.01 1759.06 1228.01 1759.59 1228.03 1760.02 1228.06 1760.34L1227.69 1762.14 1224.2 1762.14 1222.88 1760.53C1223.69 1757.56 1224.44 1754.51 1225.14 1751.38Z" fill-rule="evenodd"/><text fill="#000000" fill-opacity="0" font-family="Arial,Arial_MSFontService,sans-serif" font-size="36.4429" x="1222.88" y="1757.59">ğœ‡</text><path d="M1181.19 1807.72C1178.79 1807.8 1176.64 1808.49 1174.74 1809.81 1172.84 1811.12 1171.37 1812.89 1170.32 1815.11 1169.28 1817.33 1168.75 1819.79 1168.75 1822.5 1168.75 1823.89 1168.98 1825.02 1169.44 1825.87 1169.89 1826.72 1170.46 1827.3 1171.14 1827.62 1171.82 1827.95 1172.56 1828.11 1173.35 1828.11 1175.15 1828.11 1176.72 1827.52 1178.05 1826.34 1179.37 1825.15 1180.44 1823.35 1181.25 1820.94 1182.07 1818.52 1182.48 1816.18 1182.48 1813.9 1182.48 1811.45 1182.05 1809.39 1181.19 1807.72ZM1185.32 1804.1 1193.86 1804.1 1193.06 1807.64 1184.28 1807.64 1184.22 1807.86C1185.24 1809.08 1185.98 1810.3 1186.42 1811.54 1186.87 1812.77 1187.1 1814.13 1187.1 1815.59 1187.1 1818.26 1186.52 1820.74 1185.38 1823.02 1184.23 1825.3 1182.63 1827.07 1180.57 1828.32 1178.51 1829.58 1176.18 1830.2 1173.59 1830.2 1170.63 1830.2 1168.38 1829.41 1166.83 1827.83 1165.28 1826.24 1164.51 1824 1164.51 1821.1 1164.51 1819.11 1164.81 1817.23 1165.41 1815.45 1166.01 1813.66 1166.9 1812.03 1168.07 1810.53 1169.24 1809.04 1170.57 1807.82 1172.06 1806.89 1173.54 1805.96 1175.31 1805.26 1177.37 1804.8 1179.43 1804.33 1182.08 1804.1 1185.32 1804.1Z" fill-rule="evenodd"/><text fill="#000000" fill-opacity="0" font-family="Arial,Arial_MSFontService,sans-serif" font-size="26.1035" x="1164.51" y="1826.94">ğœ</text><path d="M1103.72 1774.99 1179.22 1774.99 1254.72 1774.99 1254.72 1778.99 1179.22 1778.99 1103.72 1778.99Z" fill-rule="evenodd"/><path d="M1285.16 1760.01 1288.98 1760.01 1288.98 1775.48 1303.61 1775.48 1303.61 1779.05 1288.98 1779.05 1288.98 1794.52 1285.16 1794.52 1285.16 1779.05 1270.53 1779.05 1270.53 1775.48 1285.16 1775.48Z" fill-rule="evenodd"/><text fill="#000000" fill-opacity="0" font-family="Arial,Arial_MSFontService,sans-serif" font-size="34.5093" x="1270.53" y="1790.21">+</text><path d="M1341.98 1756.68C1339.71 1756.68 1337.81 1757.78 1336.29 1759.97 1334.77 1762.17 1333.52 1765.49 1332.56 1769.95L1328.93 1786.79C1328.84 1787.2 1328.8 1787.55 1328.8 1787.84 1328.8 1788.32 1328.91 1788.73 1329.13 1789.07 1329.36 1789.41 1329.69 1789.75 1330.13 1790.08 1330.57 1790.41 1331.13 1790.7 1331.83 1790.94 1332.53 1791.18 1333.42 1791.3 1334.49 1791.3 1335.94 1791.3 1337.26 1790.85 1338.45 1789.96 1339.64 1789.06 1340.58 1787.79 1341.26 1786.14 1341.94 1784.5 1342.28 1782.62 1342.28 1780.5 1342.28 1778.48 1341.72 1776.9 1340.6 1775.75 1339.48 1774.6 1337.88 1773.95 1335.81 1773.79L1336.18 1771.88C1338.12 1771.74 1339.86 1771.19 1341.42 1770.22 1342.98 1769.25 1344.2 1767.98 1345.09 1766.42 1345.97 1764.85 1346.41 1763.14 1346.41 1761.28 1346.41 1759.79 1346.04 1758.65 1345.3 1757.86 1344.56 1757.08 1343.45 1756.68 1341.98 1756.68ZM1342.25 1754.56C1345.01 1754.56 1347.14 1755.17 1348.64 1756.4 1350.15 1757.63 1350.9 1759.37 1350.9 1761.62 1350.9 1762.54 1350.77 1763.53 1350.51 1764.59 1350.25 1765.66 1349.74 1766.7 1348.97 1767.73 1348.2 1768.76 1347.13 1769.72 1345.76 1770.59 1344.39 1771.47 1342.71 1772.22 1340.72 1772.85L1340.67 1773.07C1344.93 1774.57 1347.06 1777.37 1347.06 1781.47 1347.06 1783.58 1346.59 1785.56 1345.65 1787.41 1344.71 1789.25 1343.33 1790.71 1341.51 1791.8 1339.7 1792.88 1337.61 1793.42 1335.24 1793.42 1333.72 1793.42 1332.38 1793.3 1331.23 1793.06 1330.07 1792.82 1328.88 1792.4 1327.64 1791.81L1324.77 1804.54 1320.39 1804.54 1328.34 1769.04C1329.06 1765.85 1330.02 1763.21 1331.24 1761.11 1332.46 1759.02 1333.98 1757.4 1335.81 1756.27 1337.63 1755.13 1339.78 1754.56 1342.25 1754.56Z" fill-rule="evenodd"/><text fill="#000000" fill-opacity="0" font-family="Arial,Arial_MSFontService,sans-serif" font-size="49.978" x="1320.39" y="1798.29">ğ›½</text><rect x="1487.5" y="1207.5" width="63.0002" height="314" stroke="#171717" stroke-width="6.875" stroke-miterlimit="8" fill="#D1D1D1"/><rect x="1596.5" y="1207.5" width="62.0002" height="314" stroke="#7F7F7F" stroke-width="6.875" stroke-miterlimit="8" fill="#F2F2F2"/><path d="M1515.36 1568.92C1513.71 1568.92 1512.18 1569.65 1510.76 1571.12 1509.35 1572.59 1508.22 1574.58 1507.37 1577.08 1506.52 1579.59 1506.09 1582.16 1506.09 1584.79 1506.09 1586.6 1506.36 1587.94 1506.9 1588.82 1507.43 1589.7 1508.24 1590.14 1509.31 1590.14 1510.85 1590.14 1512.44 1589.23 1514.07 1587.42 1515.7 1585.62 1517.21 1583.1 1518.6 1579.88 1518.91 1578.02 1519.06 1576.37 1519.06 1574.94 1519.06 1572.89 1518.76 1571.38 1518.16 1570.4 1517.56 1569.41 1516.63 1568.92 1515.36 1568.92ZM1515.54 1566.8C1517.55 1566.8 1519.12 1567.42 1520.26 1568.68 1521.39 1569.93 1522.02 1571.77 1522.15 1574.18L1522.39 1574.16 1525.91 1567.23 1530.56 1567.23 1530.29 1568.6C1528.07 1571.61 1525.45 1575.3 1522.45 1579.69 1522 1583.11 1521.77 1585.53 1521.77 1586.94 1521.77 1588.12 1521.91 1588.97 1522.18 1589.48 1522.45 1589.99 1522.89 1590.24 1523.52 1590.24 1524.02 1590.24 1524.59 1590.03 1525.22 1589.61 1525.86 1589.19 1526.55 1588.54 1527.28 1587.67L1528.84 1589.12C1527.33 1590.73 1526.03 1591.83 1524.92 1592.43 1523.81 1593.03 1522.66 1593.33 1521.48 1593.33 1519.1 1593.33 1517.91 1591.59 1517.91 1588.12 1517.91 1587.35 1517.96 1586.5 1518.07 1585.57L1517.8 1585.57C1515.96 1588.33 1514.21 1590.31 1512.56 1591.52 1510.92 1592.73 1509.15 1593.33 1507.27 1593.33 1505.96 1593.33 1504.86 1592.96 1503.97 1592.2 1503.07 1591.45 1502.41 1590.45 1501.98 1589.21 1501.55 1587.96 1501.34 1586.61 1501.34 1585.14 1501.34 1581.94 1501.95 1578.9 1503.16 1576.02 1504.38 1573.15 1506.07 1570.89 1508.24 1569.26 1510.41 1567.62 1512.84 1566.8 1515.54 1566.8Z" fill-rule="evenodd"/><text fill="#000000" fill-opacity="0" font-family="Arial,Arial_MSFontService,sans-serif" font-size="26.5332" x="1501.34" y="1590.01">ğ›¼</text><path d="M1633.65 1556.59C1631.38 1556.59 1629.48 1557.69 1627.96 1559.88 1626.44 1562.08 1625.19 1565.4 1624.23 1569.86L1620.6 1586.7C1620.51 1587.11 1620.47 1587.46 1620.47 1587.75 1620.47 1588.23 1620.58 1588.64 1620.8 1588.98 1621.03 1589.32 1621.36 1589.66 1621.8 1589.99 1622.24 1590.32 1622.8 1590.61 1623.5 1590.85 1624.2 1591.09 1625.09 1591.21 1626.16 1591.21 1627.61 1591.21 1628.93 1590.76 1630.12 1589.87 1631.31 1588.97 1632.25 1587.7 1632.93 1586.05 1633.61 1584.41 1633.95 1582.53 1633.95 1580.41 1633.95 1578.39 1633.39 1576.81 1632.27 1575.66 1631.15 1574.51 1629.55 1573.86 1627.48 1573.7L1627.85 1571.79C1629.79 1571.65 1631.53 1571.1 1633.09 1570.13 1634.65 1569.16 1635.87 1567.89 1636.76 1566.33 1637.64 1564.76 1638.08 1563.05 1638.08 1561.19 1638.08 1559.7 1637.71 1558.56 1636.97 1557.77 1636.23 1556.99 1635.12 1556.59 1633.65 1556.59ZM1633.92 1554.47C1636.68 1554.47 1638.81 1555.08 1640.31 1556.31 1641.82 1557.54 1642.57 1559.28 1642.57 1561.53 1642.57 1562.45 1642.44 1563.44 1642.18 1564.5 1641.92 1565.57 1641.41 1566.61 1640.64 1567.64 1639.87 1568.67 1638.8 1569.63 1637.43 1570.5 1636.06 1571.38 1634.38 1572.13 1632.39 1572.76L1632.34 1572.98C1636.6 1574.48 1638.73 1577.28 1638.73 1581.38 1638.73 1583.49 1638.26 1585.47 1637.32 1587.32 1636.38 1589.16 1635 1590.62 1633.18 1591.71 1631.37 1592.79 1629.28 1593.33 1626.91 1593.33 1625.39 1593.33 1624.05 1593.21 1622.9 1592.97 1621.74 1592.73 1620.55 1592.31 1619.31 1591.72L1616.44 1604.45 1612.06 1604.45 1620.01 1568.95C1620.73 1565.76 1621.69 1563.12 1622.91 1561.02 1624.13 1558.93 1625.65 1557.31 1627.48 1556.18 1629.3 1555.04 1631.45 1554.47 1633.92 1554.47Z" fill-rule="evenodd"/><text fill="#000000" fill-opacity="0" font-family="Arial,Arial_MSFontService,sans-serif" font-size="49.978" x="1612.06" y="1598.2">ğ›½</text><text font-family="Arial,Arial_MSFontService,sans-serif" font-weight="400" font-size="46" transform="matrix(1 0 0 1 1189.76 1302)">mean</text><text font-family="Arial,Arial_MSFontService,sans-serif" font-weight="400" font-size="46" transform="matrix(1 0 0 1 781.122 1301)">std</text><text font-family="Arial,Arial_MSFontService,sans-serif" font-weight="400" font-size="46" transform="matrix(1 0 0 1 1515.1 1092)">Affine</text><text font-family="Arial,Arial_MSFontService,sans-serif" font-weight="400" font-size="46" transform="matrix(1 0 0 1 1494.48 1147)">Params</text><path d="M1201.5 1345 1255.5 1345 1255.5 1327.5 1290.5 1362.5 1255.5 1397.5 1255.5 1380 1201.5 1380Z" stroke="#042433" stroke-width="6.875" stroke-miterlimit="8" fill="#156082" fill-rule="evenodd"/><rect x="1779" y="1565" width="314" height="70.9998" fill="#CAEEFB"/><rect x="1779" y="1640" width="314" height="70.9998" fill="#FBE3D6"/><text font-family="Arial,Arial_MSFontService,sans-serif" font-weight="400" font-size="46" transform="matrix(1 0 0 1 1870.8 1617)">Linear</text><text font-family="Arial,Arial_MSFontService,sans-serif" font-weight="400" font-size="46" transform="matrix(1 0 0 1 1822.89 1693)">LayerNorm</text><rect x="1784" y="1169" width="315" height="71.9999" fill="#F2CFEE"/><text font-family="Arial,Arial_MSFontService,sans-serif" font-weight="400" font-size="46" transform="matrix(1 0 0 1 1892.12 1227)">MLP</text><rect x="1784" y="1296" width="315" height="72.0002" fill="#F2CFEE"/><text font-family="Arial,Arial_MSFontService,sans-serif" font-weight="400" font-size="46" transform="matrix(1 0 0 1 1892.12 1353)">MLP</text><path d="M1938.72 1050.61 1957.39 1050.61 1955.16 1058.86 1952.66 1058.86C1952.61 1057.43 1952.52 1056.38 1952.41 1055.73 1952.29 1055.08 1952.13 1054.63 1951.94 1054.39 1951.74 1054.15 1951.51 1053.99 1951.24 1053.9 1950.97 1053.82 1950.5 1053.78 1949.82 1053.78L1941.76 1053.78 1938.91 1066.97 1951.94 1066.92 1951.4 1069.23 1948.1 1070.54 1938.16 1070.41 1936.55 1077.87C1936.28 1079.14 1935.94 1080.29 1935.53 1081.3 1935.12 1082.31 1934.6 1083.21 1933.97 1084 1933.34 1084.78 1932.52 1085.49 1931.49 1086.12 1930.46 1086.74 1929.51 1087.17 1928.65 1087.38 1927.79 1087.59 1926.88 1087.7 1925.91 1087.7 1924.55 1087.7 1923.34 1087.32 1922.26 1086.56 1921.19 1085.8 1920.23 1084.64 1919.39 1083.08L1923.04 1080.99C1923.79 1082.47 1924.52 1083.57 1925.22 1084.28 1925.91 1084.99 1926.68 1085.34 1927.53 1085.34 1927.95 1085.34 1928.38 1085.25 1928.81 1085.08 1929.24 1084.91 1929.63 1084.58 1929.98 1084.08 1930.33 1083.58 1930.64 1082.87 1930.9 1081.96 1931.16 1081.04 1931.5 1079.57 1931.93 1077.52L1935.37 1060.87C1935.96 1057.97 1936.86 1055.7 1938.08 1054.05L1938.03 1053.78C1935.05 1053.78 1932.8 1053.92 1931.27 1054.19 1929.74 1054.46 1928.64 1054.91 1927.97 1055.56 1927.3 1056.2 1926.96 1057.13 1926.96 1058.35 1926.96 1059.26 1927.27 1060.37 1927.9 1061.68L1923.77 1063.29C1923.37 1062.65 1923.09 1062.04 1922.92 1061.48 1922.75 1060.91 1922.66 1060.29 1922.66 1059.61 1922.66 1058.86 1922.89 1058.1 1923.34 1057.33 1923.85 1056.4 1924.71 1055.45 1925.91 1054.5 1927.11 1053.54 1928.34 1052.75 1929.59 1052.13 1930.85 1051.51 1932.22 1051.1 1933.7 1050.88 1934.87 1050.7 1936.54 1050.61 1938.72 1050.61Z" fill-rule="evenodd"/><text fill="#000000" fill-opacity="0" font-family="Arial,Arial_MSFontService,sans-serif" font-size="37.0874" x="1919.39" y="1083.07">â„±</text><path d="M1934.71 1039.39 1944.19 1044.25 1944.49 1044.25 1954.13 1039.39 1955.18 1040.92 1945.99 1047.71 1942.39 1047.71 1933.67 1040.92Z" fill-rule="evenodd"/><text fill="#000000" fill-opacity="0" font-family="Arial,Arial_MSFontService,sans-serif" font-size="8.3252" x="1933.67" y="1046.67">à·˜</text><path d="M1964.24 1078.76 1965.2 1078.76 1962.3 1091.76C1962.12 1092.53 1962 1093.14 1961.92 1093.6 1961.85 1094.06 1961.82 1094.47 1961.82 1094.83 1961.82 1095.32 1961.92 1095.68 1962.12 1095.9 1962.32 1096.13 1962.62 1096.24 1963.03 1096.24 1963.26 1096.24 1963.5 1096.19 1963.73 1096.1 1963.96 1096.01 1964.22 1095.87 1964.48 1095.67 1964.75 1095.47 1965.04 1095.22 1965.36 1094.92 1965.68 1094.61 1966.03 1094.24 1966.43 1093.81L1967.75 1095.1C1967.08 1095.79 1966.46 1096.38 1965.91 1096.85 1965.35 1097.33 1964.83 1097.71 1964.34 1098.01 1963.84 1098.31 1963.36 1098.53 1962.88 1098.66 1962.41 1098.79 1961.9 1098.85 1961.37 1098.85 1960.87 1098.85 1960.43 1098.76 1960.03 1098.58 1959.63 1098.4 1959.29 1098.15 1959 1097.83 1958.72 1097.51 1958.5 1097.13 1958.34 1096.69 1958.18 1096.24 1958.11 1095.75 1958.11 1095.22 1958.11 1094.79 1958.16 1094.26 1958.26 1093.62 1958.37 1092.98 1958.5 1092.29 1958.66 1091.54 1958.82 1090.79 1959 1090.01 1959.2 1089.19 1959.39 1088.37 1959.59 1087.55 1959.78 1086.74 1959.96 1085.94 1960.13 1085.16 1960.28 1084.41 1960.43 1083.66 1960.54 1082.98 1960.61 1082.37 1960.63 1082.26 1960.64 1082.16 1960.64 1082.07 1960.64 1081.97 1960.64 1081.88 1960.64 1081.8 1960.62 1081.29 1960.44 1080.92 1960.11 1080.69 1959.78 1080.45 1959.19 1080.32 1958.34 1080.3L1958.57 1078.97ZM1963.11 1070.88 1967.01 1070.88 1966.05 1075.08 1962.19 1075.08Z" fill-rule="evenodd"/><text fill="#000000" fill-opacity="0" font-family="Arial,Arial_MSFontService,sans-serif" font-size="27.9688" x="1958.11" y="1095.36">ğ‘–</text><path d="M1896.5 1463C1896.5 1437.87 1916.87 1417.5 1942 1417.5 1967.13 1417.5 1987.5 1437.87 1987.5 1463 1987.5 1488.13 1967.13 1508.5 1942 1508.5 1916.87 1508.5 1896.5 1488.13 1896.5 1463Z" stroke="#3A3A3A" stroke-width="4.58333" stroke-miterlimit="8" fill="#D1D1D1" fill-rule="evenodd"/><text font-family="Times New Roman,Times New Roman_MSFontService,sans-serif" font-weight="700" font-size="64" transform="matrix(1 0 0 1 1923.27 1486)">+</text><path d="M1944.79 1241.5 1944.79 1274.08 1940.21 1274.08 1940.21 1241.5ZM1956.25 1269.5 1942.5 1297 1928.75 1269.5Z" fill="#0D0D0D"/><path d="M1944.79 1107.5 1944.79 1139.95 1940.21 1139.95 1940.21 1107.5ZM1956.25 1135.37 1942.5 1162.87 1928.75 1135.37Z" fill="#0D0D0D"/><path d="M1944.79 1368.5 1944.79 1395.19 1940.21 1395.19 1940.21 1368.5ZM1956.25 1390.6 1942.5 1418.1 1928.75 1390.6Z" fill="#0D0D0D"/><path d="M1944.79 1508.5 1944.79 1522.25 1940.21 1522.25 1940.21 1508.5ZM1944.79 1526.83 1944.79 1539.08 1940.21 1539.08 1940.21 1526.83ZM1956.25 1534.5 1942.5 1562 1928.75 1534.5Z" fill="#0D0D0D"/><path d="M1918.85 1268.5 1918.85 1272.97 1769.89 1272.97 1772.18 1270.68 1772.18 1462.47 1769.89 1460.17 1873.58 1460.17 1873.58 1464.76 1767.59 1464.76 1767.59 1268.38 1916.56 1268.38 1914.27 1270.68 1914.27 1268.5ZM1869 1448.72 1896.5 1462.47 1869 1476.22Z" fill="#0D0D0D"/><path d="M0-2.29167 13.75-2.29167 13.75 2.29167 0 2.29167ZM18.3333-2.29167 32.0833-2.29167 32.0833 2.29167 18.3333 2.29167ZM36.6667-2.29167 50.4167-2.29167 50.4167 2.29167 36.6667 2.29167ZM55-2.29167 68.75-2.29167 68.75 2.29167 55 2.29167ZM73.3333-2.29167 87.0833-2.29167 87.0833 2.29167 73.3333 2.29167ZM91.6667-2.29167 105.417-2.29167 105.417 2.29167 91.6667 2.29167ZM110-2.29167 123.75-2.29167 123.75 2.29167 110 2.29167ZM128.333-2.29167 132.917-2.29167 132.917 11.4582 128.334 11.4582 128.334 0 130.625 2.29167 128.333 2.29167ZM132.917 16.0415 132.917 29.7915 128.334 29.7915 128.334 16.0415ZM132.917 34.3748 132.917 48.1248 128.334 48.1248 128.334 34.3748ZM132.917 52.7082 132.917 66.4582 128.334 66.4582 128.334 52.7082ZM132.917 71.0415 132.917 84.7915 128.334 84.7915 128.334 71.0415ZM132.917 89.3748 132.917 103.125 128.334 103.125 128.334 89.3748ZM132.917 107.708 132.917 121.458 128.334 121.458 128.334 107.708ZM132.917 126.041 132.917 139.791 128.334 139.791 128.334 126.041ZM132.917 144.375 132.917 158.125 128.334 158.125 128.334 144.375ZM132.917 162.708 132.917 176.458 128.334 176.458 128.334 162.708ZM132.917 181.041 132.917 194.791 128.334 194.791 128.334 181.041ZM132.917 199.375 132.917 213.125 128.334 213.125 128.334 199.375ZM132.917 217.708 132.917 231.458 128.334 231.458 128.334 217.708ZM132.917 236.041 132.917 249.791 128.334 249.791 128.334 236.041ZM132.917 254.375 132.917 268.125 128.334 268.125 128.334 254.375ZM132.917 272.708 132.917 286.458 128.334 286.458 128.334 272.708ZM132.917 291.041 132.917 304.791 128.334 304.791 128.334 291.041ZM132.917 309.375 132.917 323.125 128.334 323.125 128.334 309.375ZM132.917 327.708 132.917 333.616 120.489 333.609 120.492 329.026 130.627 329.032 128.334 331.323 128.334 327.708ZM115.906 333.606 102.156 333.598 102.158 329.014 115.908 329.023ZM97.5724 333.595 83.8224 333.587 83.8251 329.003 97.5751 329.012ZM79.239 333.584 65.489 333.575 65.4918 328.992 79.2418 329ZM60.9057 333.573 47.1557 333.564 47.1585 328.981 60.9085 328.989ZM42.5724 333.561 28.8224 333.553 28.8252 328.97 42.5752 328.978ZM31.8922 345.072 4.58333 330.946 32.2693 317.575Z" fill="#0D0D0D" transform="matrix(1 0 0 -1 1987.5 1462.45)"/><path d="M1936.79 1711.5 1936.79 1738.19 1932.21 1738.19 1932.21 1711.5ZM1948.25 1733.6 1934.5 1761.1 1920.75 1733.6Z" fill="#0D0D0D"/><text font-family="Arial,Arial_MSFontService,sans-serif" font-weight="400" font-size="46" transform="matrix(6.12323e-17 1 -1 6.12323e-17 2145.53 1236)">Repeat </text><text font-family="Arial,Arial_MSFontService,sans-serif" font-weight="400" font-size="46" transform="matrix(1 0 0 1 1763.68 1811)">Point Cloud Feat.</text><text font-family="Arial,Arial_MSFontService,sans-serif" font-weight="400" font-size="46" transform="matrix(1 0 0 1 1979.4 1542)">Max Pool</text><path d="M1705.5 1024.5 1706.19 1849.51" stroke="#0E2841" stroke-width="4.58333" stroke-miterlimit="8" stroke-dasharray="18.3333 13.75 4.58333 13.75" fill="none" fill-rule="evenodd"/></g></svg>