<svg width="1426" height="2116" xmlns="http://www.w3.org/2000/svg" xmlns:xlink="http://www.w3.org/1999/xlink" xml:space="preserve" overflow="hidden"><defs><clipPath id="clip0"><rect x="761" y="754" width="1426" height="2116"/></clipPath></defs><g clip-path="url(#clip0)" transform="translate(-761 -754)"><rect x="764.5" y="853.5" width="1406" height="481" stroke="#042433" stroke-width="6.875" stroke-miterlimit="8" stroke-dasharray="27.5 20.625" fill="none"/><rect x="790.5" y="879.5" width="386" height="385" stroke="#042433" stroke-width="6.875" stroke-miterlimit="8" fill="none"/><path d="M1074.27 948.423 1153.94 965.705 1136.68 1045.28 1057.01 1028Z" stroke="#C00000" stroke-width="6.875" stroke-miterlimit="8" fill="#FF7C80" fill-rule="evenodd"/><path d="M1029.13 1156.51 1107.14 1173.43 1090.24 1251.35 1012.23 1234.43Z" stroke="#163E64" stroke-width="6.875" stroke-miterlimit="8" fill="#4E95D9" fill-rule="evenodd"/><path d="M834.672 938.11 906.253 953.637" stroke="#000000" stroke-width="17.1875" stroke-miterlimit="8" fill="none" fill-rule="evenodd"/><path d="M883.6 1019.82 913.06 884.015 1009.86 905.013 980.4 1040.82Z" fill-rule="evenodd"/><path d="M907.983 1001.73 927.592 911.333 1017.52 930.841 997.913 1021.23Z" fill="#FFFFFF" fill-rule="evenodd"/><rect x="1205.5" y="879.5" width="386" height="385" stroke="#042433" stroke-width="6.875" stroke-miterlimit="8" fill="none"/><path d="M1513.4 1105.56 1531.56 1184.94 1452.09 1203.11 1433.93 1123.74Z" stroke="#C00000" stroke-width="6.875" stroke-miterlimit="8" fill="#FF7C80" fill-rule="evenodd"/><path d="M1305.59 1153.09 1323.37 1230.81 1245.55 1248.61 1227.78 1170.89Z" stroke="#163E64" stroke-width="6.875" stroke-miterlimit="8" fill="#4E95D9" fill-rule="evenodd"/><path d="M1421.03 884.53 1437.35 955.847" stroke="#000000" stroke-width="17.1875" stroke-miterlimit="8" fill="none" fill-rule="evenodd"/><path d="M1367.72 963.464 1503.35 932.442 1525.41 1028.89 1389.78 1059.91Z" fill-rule="evenodd"/><path d="M1394.48 977.829 1484.76 957.181 1505.25 1046.78 1414.98 1067.43Z" fill="#FFFFFF" fill-rule="evenodd"/><path d="M1652.21 1086.64C1650.98 1086.64 1649.94 1086.21 1649.11 1085.34 1648.28 1084.48 1647.87 1083.38 1647.87 1082.05 1647.87 1080.72 1648.28 1079.62 1649.11 1078.75 1649.94 1077.88 1650.98 1077.45 1652.21 1077.45 1653.45 1077.45 1654.48 1077.88 1655.31 1078.75 1656.15 1079.62 1656.56 1080.72 1656.56 1082.05 1656.56 1083.38 1656.15 1084.48 1655.31 1085.34 1654.48 1086.21 1653.45 1086.64 1652.21 1086.64ZM1673.81 1086.64C1672.58 1086.64 1671.54 1086.21 1670.71 1085.34 1669.88 1084.48 1669.47 1083.38 1669.47 1082.05 1669.47 1080.72 1669.88 1079.62 1670.71 1078.75 1671.54 1077.88 1672.58 1077.45 1673.81 1077.45 1675.05 1077.45 1676.08 1077.88 1676.92 1078.75 1677.75 1079.62 1678.16 1080.72 1678.16 1082.05 1678.16 1083.38 1677.75 1084.48 1676.92 1085.34 1676.08 1086.21 1675.05 1086.64 1673.81 1086.64ZM1695.41 1086.64C1694.18 1086.64 1693.15 1086.21 1692.31 1085.34 1691.48 1084.48 1691.07 1083.38 1691.07 1082.05 1691.07 1080.72 1691.48 1079.62 1692.31 1078.75 1693.15 1077.88 1694.18 1077.45 1695.41 1077.45 1696.65 1077.45 1697.68 1077.88 1698.52 1078.75 1699.35 1079.62 1699.76 1080.72 1699.76 1082.05 1699.76 1083.38 1699.35 1084.48 1698.52 1085.34 1697.68 1086.21 1696.65 1086.64 1695.41 1086.64Z" fill-rule="evenodd"/><text fill="#000000" fill-opacity="0" font-family="Arial,Arial_MSFontService,sans-serif" font-size="9.19629" x="1647.87" y="1085.5">โฏ</text><rect x="1753.5" y="884.5" width="386" height="385" stroke="#042433" stroke-width="6.875" stroke-miterlimit="8" fill="none"/><path d="M1871.45 1197.42 1791.73 1180.35 1808.77 1100.73 1888.49 1117.79Z" stroke="#C00000" stroke-width="6.875" stroke-miterlimit="8" fill="#FF7C80" fill-rule="evenodd"/><path d="M1916.02 989.206 1837.96 972.498 1854.65 894.535 1932.7 911.242Z" stroke="#163E64" stroke-width="6.875" stroke-miterlimit="8" fill="#4E95D9" fill-rule="evenodd"/><path d="M2111.08 1207.07 2039.45 1191.74" stroke="#000000" stroke-width="17.1875" stroke-miterlimit="8" fill="none" fill-rule="evenodd"/><path d="M2061.92 1125.49 2032.84 1261.38 1935.98 1240.65 1965.06 1104.76Z" fill-rule="evenodd"/><path d="M2037.59 1143.66 2018.23 1234.1 1928.25 1214.84 1947.61 1124.4Z" fill="#FFFFFF" fill-rule="evenodd"/><text font-family="Arial,Arial_MSFontService,sans-serif" font-weight="400" font-size="50" transform="matrix(1 0 0 1 1260.53 819)">Equivariant Group: </text><text font-family="Cambria Math,Cambria Math_MSFontService,sans-serif" font-weight="400" font-size="50" transform="matrix(1 0 0 1 1694.23 819)">๐ข</text><text font-family="Cambria Math,Cambria Math_MSFontService,sans-serif" font-weight="400" font-size="37" transform="matrix(1 0 0 1 1722.46 829)">๐</text><text font-family="Cambria Math,Cambria Math_MSFontService,sans-serif" font-weight="400" font-size="50" transform="matrix(1 0 0 1 955.925 1309)">๐ฑ</text><text font-family="Cambria Math,Cambria Math_MSFontService,sans-serif" font-weight="400" font-size="50" transform="matrix(1 0 0 1 1365.85 1309)">๐ฒ</text><text font-family="Cambria Math,Cambria Math_MSFontService,sans-serif" font-weight="400" font-size="50" transform="matrix(1 0 0 1 1944.99 1309)">๐ณ</text><path d="M802.5 1510.5 1133.5 1510.5 1067.3 1731.5 868.7 1731.5Z" stroke="#042433" stroke-width="6.875" stroke-miterlimit="8" fill="#156082" fill-rule="evenodd"/><path d="M960.031 1595.41C950.597 1595.82 945.88 1600.21 945.88 1608.6 945.88 1613.02 946.991 1616.3 949.213 1618.44 951.435 1620.58 955.041 1621.7 960.031 1621.79ZM966.447 1595.31 966.447 1621.68C975.881 1621.38 980.598 1616.96 980.598 1608.42 980.598 1599.73 975.881 1595.36 966.447 1595.31ZM955.861 1584.47 970.618 1584.47 970.618 1586.22C969.073 1586.57 967.992 1587.07 967.374 1587.72 966.756 1588.36 966.447 1589.91 966.447 1592.38L966.483 1592.38C972.804 1592.38 977.931 1593.61 981.863 1596.07 985.796 1598.53 987.763 1602.37 987.763 1607.57 987.763 1612.94 986.04 1617.02 982.594 1619.8 979.148 1622.58 973.766 1624.19 966.447 1624.64L966.447 1624.82C966.447 1627.25 966.697 1628.84 967.196 1629.6 967.695 1630.36 968.835 1630.95 970.618 1631.38L970.618 1633.13 955.861 1633.13 955.861 1631.38C957.667 1630.95 958.813 1630.36 959.3 1629.6 959.788 1628.84 960.031 1627.25 960.031 1624.82L960.031 1624.68C952.997 1624.49 947.686 1623.15 944.098 1620.67 940.51 1618.19 938.716 1614.34 938.716 1609.14 938.716 1598.66 945.821 1593.1 960.031 1592.46 960.031 1589.94 959.722 1588.35 959.104 1587.7 958.487 1587.04 957.405 1586.55 955.861 1586.22Z" fill="#FFFFFF" fill-rule="evenodd"/><text fill="#000000" fill-opacity="0" font-family="Arial,Arial_MSFontService,sans-serif" font-size="48.6548" x="938.716" y="1627.04">ฮฆ</text><path d="M1221.5 1510.5 1552.5 1510.5 1486.3 1731.5 1287.7 1731.5Z" stroke="#042433" stroke-width="6.875" stroke-miterlimit="8" fill="#156082" fill-rule="evenodd"/><path d="M1379.24 1595.41C1369.8 1595.82 1365.09 1600.21 1365.09 1608.6 1365.09 1613.02 1366.2 1616.3 1368.42 1618.44 1370.64 1620.58 1374.25 1621.7 1379.24 1621.79ZM1385.65 1595.31 1385.65 1621.68C1395.09 1621.38 1399.8 1616.96 1399.8 1608.42 1399.8 1599.73 1395.09 1595.36 1385.65 1595.31ZM1375.07 1584.47 1389.82 1584.47 1389.82 1586.22C1388.28 1586.57 1387.2 1587.07 1386.58 1587.72 1385.96 1588.36 1385.65 1589.91 1385.65 1592.38L1385.69 1592.38C1392.01 1592.38 1397.14 1593.61 1401.07 1596.07 1405 1598.53 1406.97 1602.37 1406.97 1607.57 1406.97 1612.94 1405.25 1617.02 1401.8 1619.8 1398.35 1622.58 1392.97 1624.19 1385.65 1624.64L1385.65 1624.82C1385.65 1627.25 1385.9 1628.84 1386.4 1629.6 1386.9 1630.36 1388.04 1630.95 1389.82 1631.38L1389.82 1633.13 1375.07 1633.13 1375.07 1631.38C1376.87 1630.95 1378.02 1630.36 1378.51 1629.6 1378.99 1628.84 1379.24 1627.25 1379.24 1624.82L1379.24 1624.68C1372.2 1624.49 1366.89 1623.15 1363.3 1620.67 1359.72 1618.19 1357.92 1614.34 1357.92 1609.14 1357.92 1598.66 1365.03 1593.1 1379.24 1592.46 1379.24 1589.94 1378.93 1588.35 1378.31 1587.7 1377.69 1587.04 1376.61 1586.55 1375.07 1586.22Z" fill="#FFFFFF" fill-rule="evenodd"/><text fill="#000000" fill-opacity="0" font-family="Arial,Arial_MSFontService,sans-serif" font-size="48.6548" x="1357.92" y="1627.04">ฮฆ</text><path d="M1801.5 1510.5 2132.5 1510.5 2066.3 1731.5 1867.7 1731.5Z" stroke="#042433" stroke-width="6.875" stroke-miterlimit="8" fill="#156082" fill-rule="evenodd"/><path d="M1958.98 1595.41C1949.55 1595.82 1944.83 1600.21 1944.83 1608.6 1944.83 1613.02 1945.94 1616.3 1948.16 1618.44 1950.38 1620.58 1953.99 1621.7 1958.98 1621.79ZM1965.4 1595.31 1965.4 1621.68C1974.83 1621.38 1979.55 1616.96 1979.55 1608.42 1979.55 1599.73 1974.83 1595.36 1965.4 1595.31ZM1954.81 1584.47 1969.57 1584.47 1969.57 1586.22C1968.02 1586.57 1966.94 1587.07 1966.32 1587.72 1965.71 1588.36 1965.4 1589.91 1965.4 1592.38L1965.43 1592.38C1971.75 1592.38 1976.88 1593.61 1980.81 1596.07 1984.75 1598.53 1986.71 1602.37 1986.71 1607.57 1986.71 1612.94 1984.99 1617.02 1981.54 1619.8 1978.1 1622.58 1972.72 1624.19 1965.4 1624.64L1965.4 1624.82C1965.4 1627.25 1965.65 1628.84 1966.15 1629.6 1966.64 1630.36 1967.79 1630.95 1969.57 1631.38L1969.57 1633.13 1954.81 1633.13 1954.81 1631.38C1956.62 1630.95 1957.76 1630.36 1958.25 1629.6 1958.74 1628.84 1958.98 1627.25 1958.98 1624.82L1958.98 1624.68C1951.95 1624.49 1946.64 1623.15 1943.05 1620.67 1939.46 1618.19 1937.67 1614.34 1937.67 1609.14 1937.67 1598.66 1944.77 1593.1 1958.98 1592.46 1958.98 1589.94 1958.67 1588.35 1958.05 1587.7 1957.44 1587.04 1956.35 1586.55 1954.81 1586.22Z" fill="#FFFFFF" fill-rule="evenodd"/><text fill="#000000" fill-opacity="0" font-family="Arial,Arial_MSFontService,sans-serif" font-size="48.6548" x="1937.67" y="1627.04">ฮฆ</text><path d="M1656.8 1633.98C1655.57 1633.98 1654.53 1633.55 1653.7 1632.68 1652.87 1631.82 1652.45 1630.72 1652.45 1629.39 1652.45 1628.05 1652.87 1626.96 1653.7 1626.09 1654.53 1625.22 1655.57 1624.79 1656.8 1624.79 1658.04 1624.79 1659.07 1625.22 1659.9 1626.09 1660.74 1626.96 1661.15 1628.05 1661.15 1629.39 1661.15 1630.72 1660.74 1631.82 1659.9 1632.68 1659.07 1633.55 1658.04 1633.98 1656.8 1633.98ZM1678.4 1633.98C1677.17 1633.98 1676.13 1633.55 1675.3 1632.68 1674.47 1631.82 1674.06 1630.72 1674.06 1629.39 1674.06 1628.05 1674.47 1626.96 1675.3 1626.09 1676.13 1625.22 1677.17 1624.79 1678.4 1624.79 1679.64 1624.79 1680.67 1625.22 1681.5 1626.09 1682.34 1626.96 1682.75 1628.05 1682.75 1629.39 1682.75 1630.72 1682.34 1631.82 1681.5 1632.68 1680.67 1633.55 1679.64 1633.98 1678.4 1633.98ZM1700 1633.98C1698.77 1633.98 1697.73 1633.55 1696.9 1632.68 1696.07 1631.82 1695.66 1630.72 1695.66 1629.39 1695.66 1628.05 1696.07 1626.96 1696.9 1626.09 1697.73 1625.22 1698.77 1624.79 1700 1624.79 1701.24 1624.79 1702.27 1625.22 1703.11 1626.09 1703.94 1626.96 1704.35 1628.05 1704.35 1629.39 1704.35 1630.72 1703.94 1631.82 1703.11 1632.68 1702.27 1633.55 1701.24 1633.98 1700 1633.98Z" fill-rule="evenodd"/><text fill="#000000" fill-opacity="0" font-family="Arial,Arial_MSFontService,sans-serif" font-size="9.19629" x="1652.45" y="1632.83">โฏ</text><text font-family="Cambria Math,Cambria Math_MSFontService,sans-serif" font-weight="400" font-size="50" transform="matrix(1 0 0 1 867.158 1399)">๐ฑ</text><path d="M17.6514-33.3496 19.5557-32.5195C18.7907-31.1849 18.0623-30.1554 17.3706-29.4312 16.6789-28.7069 16.0156-28.2104 15.3809-27.9419 14.7461-27.6733 14.0218-27.5391 13.208-27.5391 12.6709-27.5391 12.1989-27.5838 11.792-27.6733 11.3851-27.7629 10.9863-27.8931 10.5957-28.064 10.2051-28.2349 9.59472-28.5482 8.76465-29.0039 8.22754-29.2969 7.80029-29.5247 7.48291-29.6875 7.16553-29.8503 6.83594-29.9845 6.49414-30.0903 6.15234-30.1961 5.79427-30.249 5.41992-30.249 4.88281-30.249 4.43929-30.1676 4.08935-30.0049 3.73942-29.8421 3.38542-29.5573 3.02734-29.1504 2.66927-28.7435 2.29492-28.2064 1.9043-27.5391L0-28.3691C0.960286-29.9316 1.74561-31.0181 2.35596-31.6284 2.96631-32.2388 3.58887-32.6782 4.22363-32.9468 4.8584-33.2153 5.61523-33.3496 6.49414-33.3496 6.98242-33.3496 7.42187-33.3048 7.8125-33.2153 8.20312-33.1258 8.56527-33.0078 8.89892-32.8613 9.23258-32.7148 9.80631-32.4219 10.6201-31.9824 11.1898-31.6569 11.6496-31.4046 11.9995-31.2256 12.3494-31.0465 12.7034-30.9041 13.0615-30.7983 13.4196-30.6925 13.8346-30.6396 14.3066-30.6396 14.9414-30.6396 15.5111-30.839 16.0156-31.2378 16.5202-31.6366 17.0654-32.3405 17.6514-33.3496Z" transform="matrix(1 0 0 1 871.673 1399)"/><text fill="#000000" fill-opacity="0" font-family="Arial,Arial_MSFontService,sans-serif" font-size="5.81054" y="-28.2654">เทค</text><text font-family="Cambria Math,Cambria Math_MSFontService,sans-serif" font-weight="400" font-size="50" transform="matrix(1 0 0 1 907.515 1399)">=</text><text font-family="Cambria Math,Cambria Math_MSFontService,sans-serif" font-weight="400" font-size="50" transform="matrix(1 0 0 1 959.329 1399)">๐ฑ</text><text font-family="Cambria Math,Cambria Math_MSFontService,sans-serif" font-weight="400" font-size="50" transform="matrix(1 0 0 1 996.89 1399)">โ</text><text font-family="Cambria Math,Cambria Math_MSFontService,sans-serif" font-weight="400" font-size="50" transform="matrix(1 0 0 1 1045.91 1399)">๐ฑ</text><path d="M21.5088-29.2236 0-29.2236 0-31.8115 21.5088-31.8115Z" transform="matrix(1 0 0 1 1049.44 1399)"/><text fill="#000000" fill-opacity="0" font-family="Arial,Arial_MSFontService,sans-serif" font-size="2.58789" y="-29.5471">เดค</text><text font-family="Cambria Math,Cambria Math_MSFontService,sans-serif" font-weight="400" font-size="50" transform="matrix(1 0 0 1 1274.06 1399)">๐ฒ</text><path d="M17.6514-33.3496 19.5557-32.5195C18.7907-31.1849 18.0623-30.1554 17.3706-29.4312 16.6789-28.7069 16.0156-28.2104 15.3809-27.9419 14.7461-27.6733 14.0218-27.5391 13.208-27.5391 12.6709-27.5391 12.1989-27.5838 11.792-27.6733 11.3851-27.7629 10.9863-27.8931 10.5957-28.064 10.2051-28.2349 9.59472-28.5482 8.76465-29.0039 8.22754-29.2969 7.80029-29.5247 7.48291-29.6875 7.16553-29.8503 6.83594-29.9845 6.49414-30.0903 6.15234-30.1961 5.79427-30.249 5.41992-30.249 4.88281-30.249 4.43929-30.1676 4.08935-30.0049 3.73942-29.8421 3.38542-29.5573 3.02734-29.1504 2.66927-28.7435 2.29492-28.2064 1.9043-27.5391L0-28.3691C0.960286-29.9316 1.74561-31.0181 2.35596-31.6284 2.96631-32.2388 3.58887-32.6782 4.22363-32.9468 4.8584-33.2153 5.61523-33.3496 6.49414-33.3496 6.98242-33.3496 7.42187-33.3048 7.8125-33.2153 8.20312-33.1258 8.56527-33.0078 8.89892-32.8613 9.23258-32.7148 9.80631-32.4219 10.6201-31.9824 11.1898-31.6569 11.6496-31.4046 11.9995-31.2256 12.3494-31.0465 12.7034-30.9041 13.0615-30.7983 13.4196-30.6925 13.8346-30.6396 14.3066-30.6396 14.9414-30.6396 15.5111-30.839 16.0156-31.2378 16.5202-31.6366 17.0654-32.3405 17.6514-33.3496Z" transform="matrix(1 0 0 1 1279.86 1399)"/><text fill="#000000" fill-opacity="0" font-family="Arial,Arial_MSFontService,sans-serif" font-size="5.81054" y="-28.2654">เทค</text><text font-family="Cambria Math,Cambria Math_MSFontService,sans-serif" font-weight="400" font-size="50" transform="matrix(1 0 0 1 1315.56 1399)">=</text><text font-family="Cambria Math,Cambria Math_MSFontService,sans-serif" font-weight="400" font-size="50" transform="matrix(1 0 0 1 1367.38 1399)">๐ฒ</text><text font-family="Cambria Math,Cambria Math_MSFontService,sans-serif" font-weight="400" font-size="50" transform="matrix(1 0 0 1 1406.08 1399)">โ</text><text font-family="Cambria Math,Cambria Math_MSFontService,sans-serif" font-weight="400" font-size="50" transform="matrix(1 0 0 1 1455.1 1399)">๐ฒ</text><path d="M21.5088-29.2236 0-29.2236 0-31.8115 21.5088-31.8115Z" transform="matrix(1 0 0 1 1459.91 1399)"/><text fill="#000000" fill-opacity="0" font-family="Arial,Arial_MSFontService,sans-serif" font-size="2.58789" y="-29.5471">เดค</text><text font-family="Cambria Math,Cambria Math_MSFontService,sans-serif" font-weight="400" font-size="50" transform="matrix(1 0 0 1 1859.55 1399)">๐ณ</text><path d="M17.6514-33.3496 19.5557-32.5195C18.7907-31.1849 18.0623-30.1554 17.3706-29.4312 16.6789-28.7069 16.0156-28.2104 15.3809-27.9419 14.7461-27.6733 14.0218-27.5391 13.208-27.5391 12.6709-27.5391 12.1989-27.5838 11.792-27.6733 11.3851-27.7629 10.9863-27.8931 10.5957-28.064 10.2051-28.2349 9.59472-28.5482 8.76465-29.0039 8.22754-29.2969 7.80029-29.5247 7.48291-29.6875 7.16553-29.8503 6.83594-29.9845 6.49414-30.0903 6.15234-30.1961 5.79427-30.249 5.41992-30.249 4.88281-30.249 4.43929-30.1676 4.08935-30.0049 3.73942-29.8421 3.38542-29.5573 3.02734-29.1504 2.66927-28.7435 2.29492-28.2064 1.9043-27.5391L0-28.3691C0.960286-29.9316 1.74561-31.0181 2.35596-31.6284 2.96631-32.2388 3.58887-32.6782 4.22363-32.9468 4.8584-33.2153 5.61523-33.3496 6.49414-33.3496 6.98242-33.3496 7.42187-33.3048 7.8125-33.2153 8.20312-33.1258 8.56527-33.0078 8.89892-32.8613 9.23258-32.7148 9.80631-32.4219 10.6201-31.9824 11.1898-31.6569 11.6496-31.4046 11.9995-31.2256 12.3494-31.0465 12.7034-30.9041 13.0615-30.7983 13.4196-30.6925 13.8346-30.6396 14.3066-30.6396 14.9414-30.6396 15.5111-30.839 16.0156-31.2378 16.5202-31.6366 17.0654-32.3405 17.6514-33.3496Z" transform="matrix(1 0 0 1 1862.9 1399)"/><text fill="#000000" fill-opacity="0" font-family="Arial,Arial_MSFontService,sans-serif" font-size="5.81054" y="-28.2654">เทค</text><text font-family="Cambria Math,Cambria Math_MSFontService,sans-serif" font-weight="400" font-size="50" transform="matrix(1 0 0 1 1898.19 1399)">=</text><text font-family="Cambria Math,Cambria Math_MSFontService,sans-serif" font-weight="400" font-size="50" transform="matrix(1 0 0 1 1950.01 1399)">๐ณ</text><text font-family="Cambria Math,Cambria Math_MSFontService,sans-serif" font-weight="400" font-size="50" transform="matrix(1 0 0 1 1985.85 1399)">โ</text><text font-family="Cambria Math,Cambria Math_MSFontService,sans-serif" font-weight="400" font-size="50" transform="matrix(1 0 0 1 2034.87 1399)">๐ณ</text><path d="M21.5088-29.2236 0-29.2236 0-31.8115 21.5088-31.8115Z" transform="matrix(1 0 0 1 2037.23 1399)"/><text fill="#000000" fill-opacity="0" font-family="Arial,Arial_MSFontService,sans-serif" font-size="2.58789" y="-29.5471">เดค</text><path d="M3.43761 22.9167 3.43786 74.4409-3.43714 74.4409-3.43739 22.9167ZM-13.7499 27.5001 0 0 13.7501 27.4999Z" transform="matrix(1 0 0 -1 974.5 1496.94)"/><path d="M3.43761 22.9167 3.43786 74.4409-3.43714 74.4409-3.43739 22.9167ZM-13.7499 27.5001 0 0 13.7501 27.4999Z" transform="matrix(1 0 0 -1 1379.5 1492.94)"/><path d="M3.43761 22.9167 3.43786 74.4409-3.43714 74.4409-3.43739 22.9167ZM-13.7499 27.5001 0 0 13.7501 27.4999Z" transform="matrix(1 0 0 -1 1959.5 1490.94)"/><rect x="791.5" y="2360.5" width="386" height="386" stroke="#042433" stroke-width="6.875" stroke-miterlimit="8" fill="none"/><rect x="841.5" y="2406.5" width="81.0001" height="81.9998" stroke="#C00000" stroke-width="6.875" stroke-miterlimit="8" fill="#FF7C80"/><rect x="1054.5" y="2408.5" width="79.9998" height="79.9998" stroke="#163E64" stroke-width="6.875" stroke-miterlimit="8" fill="#4E95D9"/><path d="M882.5 2724.66 882.5 2651.5" stroke="#000000" stroke-width="17.1875" stroke-miterlimit="8" fill="none" fill-rule="evenodd"/><rect x="812" y="2560" width="139" height="99"/><rect x="836" y="2547" width="92.0001" height="92.0002" fill="#FFFFFF"/><path d="M853.063 1870.23 853.063 1812.38 966.421 1812.38 962.983 1815.82 962.983 1738.5 969.858 1738.5 969.858 1819.26 856.5 1819.26 859.938 1815.82 859.938 1870.23ZM870.25 1865.64 856.5 1893.14 842.75 1865.64Z"/><path d="M22.9167-3.4375 80.5953-3.4375 80.5953 107.052 77.1578 103.614 145.148 103.614 145.148 110.489 73.7203 110.489 73.7203 0 77.1578 3.4375 22.9167 3.4375ZM27.5 13.75 0 0 27.5-13.75Z" transform="matrix(-1.83697e-16 -1 -1 1.83697e-16 1073.55 1893.65)"/><text font-family="Cambria Math,Cambria Math_MSFontService,sans-serif" font-weight="400" font-size="50" transform="matrix(1 0 0 1 831.535 1946)">๐ซ</text><text font-family="Cambria Math,Cambria Math_MSFontService,sans-serif" font-weight="400" font-size="37" transform="matrix(1 0 0 1 852.733 1957)">๐ฑ</text><text font-family="Cambria Math,Cambria Math_MSFontService,sans-serif" font-weight="400" font-size="37" transform="matrix(1 0 0 1 856.491 1928)">1</text><text font-family="Cambria Math,Cambria Math_MSFontService,sans-serif" font-weight="400" font-size="50" transform="matrix(1 0 0 1 1045.22 1946)">๐ซ</text><text font-family="Cambria Math,Cambria Math_MSFontService,sans-serif" font-weight="400" font-size="37" transform="matrix(1 0 0 1 1066.42 1957)">๐ฑ</text><text font-family="Cambria Math,Cambria Math_MSFontService,sans-serif" font-weight="400" font-size="37" transform="matrix(1 0 0 1 1071.25 1928)">2</text><path d="M1267.06 1871.23 1267.06 1813.38 1380.42 1813.38 1376.98 1816.82 1376.98 1739.5 1383.86 1739.5 1383.86 1820.26 1270.5 1820.26 1273.94 1816.82 1273.94 1871.23ZM1284.25 1866.64 1270.5 1894.14 1256.75 1866.64Z"/><path d="M22.9167-3.4375 80.5953-3.4375 80.5953 107.052 77.1578 103.614 145.148 103.614 145.148 110.489 73.7203 110.489 73.7203 0 77.1578 3.4375 22.9167 3.4375ZM27.5 13.75 0 0 27.5-13.75Z" transform="matrix(-1.83697e-16 -1 -1 1.83697e-16 1486.55 1893.65)"/><text font-family="Cambria Math,Cambria Math_MSFontService,sans-serif" font-weight="400" font-size="50" transform="matrix(1 0 0 1 1241.08 1948)">๐ซ</text><text font-family="Cambria Math,Cambria Math_MSFontService,sans-serif" font-weight="400" font-size="37" transform="matrix(1 0 0 1 1262.28 1959)">๐ฒ</text><text font-family="Cambria Math,Cambria Math_MSFontService,sans-serif" font-weight="400" font-size="37" transform="matrix(1 0 0 1 1266.04 1930)">1</text><text font-family="Cambria Math,Cambria Math_MSFontService,sans-serif" font-weight="400" font-size="50" transform="matrix(1 0 0 1 1464.76 1948)">๐ซ</text><text font-family="Cambria Math,Cambria Math_MSFontService,sans-serif" font-weight="400" font-size="37" transform="matrix(1 0 0 1 1485.96 1959)">๐ฒ</text><text font-family="Cambria Math,Cambria Math_MSFontService,sans-serif" font-weight="400" font-size="37" transform="matrix(1 0 0 1 1490.8 1930)">2</text><path d="M1847.06 1868.23 1847.06 1810.38 1960.42 1810.38 1956.98 1813.82 1956.98 1736.5 1963.86 1736.5 1963.86 1817.26 1850.5 1817.26 1853.94 1813.82 1853.94 1868.23ZM1864.25 1863.64 1850.5 1891.14 1836.75 1863.64Z"/><path d="M22.9167-3.4375 81.1687-3.4375 81.1687 107.052 77.7312 103.614 145.148 103.614 145.148 110.489 74.2937 110.489 74.2937 0 77.7312 3.4375 22.9167 3.4375ZM27.5 13.75 0 0 27.5-13.75Z" transform="matrix(-1.83697e-16 -1 -1 1.83697e-16 2067.55 1891.65)"/><text font-family="Cambria Math,Cambria Math_MSFontService,sans-serif" font-weight="400" font-size="50" transform="matrix(1 0 0 1 1824.06 1946)">๐ซ</text><text font-family="Cambria Math,Cambria Math_MSFontService,sans-serif" font-weight="400" font-size="37" transform="matrix(1 0 0 1 1844.09 1957)">๐ณ</text><text font-family="Cambria Math,Cambria Math_MSFontService,sans-serif" font-weight="400" font-size="37" transform="matrix(1 0 0 1 1849.02 1928)">1</text><text font-family="Cambria Math,Cambria Math_MSFontService,sans-serif" font-weight="400" font-size="50" transform="matrix(1 0 0 1 2043.91 1946)">๐ซ</text><text font-family="Cambria Math,Cambria Math_MSFontService,sans-serif" font-weight="400" font-size="37" transform="matrix(1 0 0 1 2063.94 1957)">๐ณ</text><text font-family="Cambria Math,Cambria Math_MSFontService,sans-serif" font-weight="400" font-size="37" transform="matrix(1 0 0 1 2069.94 1928)">2</text><path d="M1068.25 2129.89C1066.85 2129.89 1065.93 2129.9 1065.49 2129.93L1065.49 2143.51 1067.9 2143.51C1069.56 2143.51 1070.88 2143.22 1071.85 2142.63 1072.82 2142.04 1073.49 2141.25 1073.87 2140.25 1074.26 2139.25 1074.45 2138.01 1074.45 2136.53 1074.45 2134.31 1073.93 2132.65 1072.88 2131.55 1071.84 2130.44 1070.3 2129.89 1068.25 2129.89ZM1055.31 2127.03 1069.54 2127.03C1071.88 2127.03 1073.83 2127.24 1075.39 2127.66 1076.94 2128.09 1078.18 2128.67 1079.1 2129.41 1080.02 2130.15 1080.72 2131.07 1081.21 2132.16 1081.7 2133.25 1081.94 2134.53 1081.94 2136.01 1081.94 2137.61 1081.66 2138.98 1081.1 2140.12 1080.54 2141.25 1079.78 2142.2 1078.83 2142.96 1077.88 2143.72 1076.6 2144.43 1075.01 2145.1L1075.01 2145.34C1076.21 2145.86 1077.21 2146.56 1078 2147.43 1078.79 2148.3 1079.5 2149.4 1080.14 2150.74L1081.67 2154.06C1082.36 2155.54 1083.04 2156.65 1083.71 2157.39 1084.39 2158.13 1085.19 2158.58 1086.12 2158.74L1086.12 2160.35 1076.72 2160.35C1075.77 2159.05 1074.71 2157.12 1073.52 2154.54L1071.62 2150.37C1071.05 2149.13 1070.56 2148.25 1070.15 2147.73 1069.74 2147.21 1069.32 2146.85 1068.89 2146.66 1068.46 2146.46 1067.8 2146.37 1066.9 2146.37L1065.49 2146.37 1065.49 2154.23C1065.49 2155.45 1065.54 2156.3 1065.66 2156.79 1065.77 2157.28 1065.99 2157.67 1066.32 2157.96 1066.64 2158.25 1067.24 2158.52 1068.12 2158.74L1068.12 2160.35 1055.31 2160.35 1055.31 2158.74C1056.19 2158.52 1056.78 2158.25 1057.1 2157.96 1057.42 2157.67 1057.63 2157.28 1057.75 2156.8 1057.86 2156.32 1057.92 2155.46 1057.92 2154.23L1057.92 2133.18C1057.92 2131.94 1057.87 2131.09 1057.76 2130.61 1057.65 2130.13 1057.44 2129.74 1057.11 2129.45 1056.79 2129.15 1056.19 2128.88 1055.31 2128.64Z" fill-rule="evenodd"/><text fill="#000000" fill-opacity="0" font-family="Arial,Arial_MSFontService,sans-serif" font-size="33.3252" x="1055.31" y="2156.19">๐</text><path d="M1095.27 2152.58 1097.52 2152.58 1097.52 2169.22C1097.52 2170.64 1097.4 2171.84 1097.15 2172.82 1096.91 2173.8 1096.49 2174.67 1095.91 2175.41 1095.32 2176.16 1094.51 2176.81 1093.46 2177.37 1092.41 2177.93 1091.37 2178.36 1090.33 2178.65L1089.47 2176.53C1090.27 2176.21 1090.86 2175.88 1091.24 2175.54 1091.61 2175.2 1091.88 2174.77 1092.05 2174.25 1092.22 2173.72 1092.3 2173 1092.3 2172.09L1092.3 2157.04C1092.3 2156.2 1092.25 2155.6 1092.14 2155.24 1092.03 2154.89 1091.85 2154.62 1091.61 2154.43 1091.36 2154.24 1090.92 2154.08 1090.3 2153.95L1090.3 2152.72ZM1092.43 2145.51 1097.38 2145.51 1097.38 2149.94 1092.43 2149.94Z" fill-rule="evenodd"/><text fill="#000000" fill-opacity="0" font-family="Arial,Arial_MSFontService,sans-serif" font-size="33.1338" x="1089.47" y="2174.51">๐ฃ</text><path d="M1120.13 2149.51 1150.2 2149.51 1150.2 2152.76 1120.13 2152.76ZM1120.13 2139.38 1150.2 2139.38 1150.2 2142.63 1120.13 2142.63Z" fill-rule="evenodd"/><text fill="#000000" fill-opacity="0" font-family="Arial,Arial_MSFontService,sans-serif" font-size="13.3789" x="1120.13" y="2151.09">=</text><path d="M1541.82 2115.89 1552.95 2115.89 1552.95 2176.3 1541.82 2176.3 1541.82 2174.29 1548.41 2174.29 1548.41 2117.9 1541.82 2117.9ZM1173.87 2115.89 1185 2115.89 1185 2117.9 1178.41 2117.9 1178.41 2174.29 1185 2174.29 1185 2176.3 1173.87 2176.3Z" fill-rule="evenodd"/><path d="M1205.9 2133.11C1206.89 2133.11 1207.93 2133.22 1209.02 2133.43L1209.02 2140.17 1204.6 2140.17C1204.33 2139.22 1203.97 2138.5 1203.52 2137.99 1203.07 2137.49 1202.47 2137.24 1201.72 2137.24 1201.37 2137.24 1200.97 2137.35 1200.54 2137.57 1200.11 2137.78 1199.71 2138.09 1199.34 2138.49 1198.98 2138.89 1198.72 2139.3 1198.56 2139.71 1198.41 2140.13 1198.31 2140.55 1198.26 2140.97 1198.21 2141.39 1198.18 2142.03 1198.18 2142.88L1198.18 2150.66C1198.18 2152.21 1198.24 2153.29 1198.35 2153.91 1198.47 2154.53 1198.7 2155.01 1199.04 2155.36 1199.38 2155.71 1199.96 2155.96 1200.77 2156.11L1200.77 2157.72 1188.74 2157.72 1188.74 2156.11C1189.52 2155.9 1190.06 2155.62 1190.36 2155.28 1190.66 2154.94 1190.86 2154.47 1190.97 2153.89 1191.07 2153.3 1191.13 2152.23 1191.13 2150.69L1191.13 2140.65C1191.13 2139.45 1191.11 2138.56 1191.07 2137.98 1191.03 2137.4 1190.93 2136.94 1190.77 2136.59 1190.62 2136.24 1190.38 2135.95 1190.07 2135.73 1189.75 2135.51 1189.2 2135.32 1188.42 2135.16L1188.42 2133.5 1195.11 2133.3 1198.18 2133.3 1197.84 2136.99 1198.16 2137.06C1199.35 2135.67 1200.57 2134.66 1201.82 2134.04 1203.07 2133.42 1204.43 2133.11 1205.9 2133.11Z" fill-rule="evenodd"/><text fill="#000000" fill-opacity="0" font-family="Arial,Arial_MSFontService,sans-serif" font-size="24.6094" x="1188.42" y="2154.64">๐ซ</text><path d="M1212.62 2151.75 1214.88 2151.75 1214.88 2168.39C1214.88 2169.81 1214.76 2171.01 1214.51 2172 1214.26 2172.98 1213.85 2173.84 1213.26 2174.59 1212.68 2175.34 1211.86 2175.99 1210.82 2176.55 1209.77 2177.11 1208.73 2177.53 1207.69 2177.82L1206.82 2175.71C1207.63 2175.38 1208.22 2175.05 1208.59 2174.72 1208.97 2174.38 1209.24 2173.95 1209.41 2173.42 1209.57 2172.9 1209.66 2172.18 1209.66 2171.26L1209.66 2156.22C1209.66 2155.37 1209.6 2154.77 1209.5 2154.42 1209.39 2154.06 1209.21 2153.79 1208.96 2153.6 1208.72 2153.42 1208.28 2153.26 1207.65 2153.13L1207.65 2151.9ZM1209.79 2144.69 1214.74 2144.69 1214.74 2149.11 1209.79 2149.11Z" fill-rule="evenodd"/><text fill="#000000" fill-opacity="0" font-family="Arial,Arial_MSFontService,sans-serif" font-size="33.1338" x="1206.82" y="2173.68">๐ฃ</text><path d="M1223.42 2114.17 1224.52 2114.17C1224.5 2114.83 1224.48 2115.42 1224.47 2115.95 1224.46 2116.47 1224.45 2116.98 1224.44 2117.47 1224.44 2117.97 1224.43 2118.46 1224.43 2118.94L1224.43 2132.67C1224.43 2133.04 1224.44 2133.36 1224.47 2133.63 1224.49 2133.91 1224.53 2134.13 1224.59 2134.32 1224.64 2134.51 1224.71 2134.67 1224.8 2134.8 1224.89 2134.93 1225 2135.05 1225.12 2135.14 1225.26 2135.29 1225.46 2135.4 1225.7 2135.48 1225.94 2135.56 1226.24 2135.62 1226.62 2135.68 1226.99 2135.73 1227.44 2135.77 1227.96 2135.8 1228.49 2135.83 1229.12 2135.85 1229.85 2135.87L1229.85 2137.44 1215.53 2137.44 1215.53 2135.87C1216.24 2135.84 1216.84 2135.81 1217.33 2135.78 1217.83 2135.75 1218.25 2135.71 1218.6 2135.66 1218.95 2135.6 1219.23 2135.54 1219.44 2135.48 1219.65 2135.41 1219.83 2135.33 1219.99 2135.23 1220.16 2135.13 1220.3 2135.01 1220.42 2134.88 1220.54 2134.75 1220.64 2134.6 1220.71 2134.4 1220.78 2134.21 1220.84 2133.98 1220.88 2133.7 1220.92 2133.42 1220.95 2133.08 1220.95 2132.67L1220.95 2119.71C1220.95 2119.24 1220.86 2118.91 1220.67 2118.72 1220.49 2118.53 1220.23 2118.43 1219.9 2118.43 1219.52 2118.43 1218.97 2118.62 1218.24 2119.01 1217.5 2119.4 1216.55 2119.97 1215.38 2120.73 1215.22 2120.45 1215.08 2120.17 1214.95 2119.9 1214.81 2119.62 1214.68 2119.34 1214.53 2119.05 1216.03 2118.23 1217.5 2117.41 1218.97 2116.6 1220.43 2115.79 1221.92 2114.98 1223.42 2114.17Z" fill-rule="evenodd"/><text fill="#000000" fill-opacity="0" font-family="Arial,Arial_MSFontService,sans-serif" font-size="23.2695" x="1214.53" y="2134.53">1</text><path d="M1304.55 2133.11C1305.55 2133.11 1306.59 2133.22 1307.68 2133.43L1307.68 2140.17 1303.26 2140.17C1302.98 2139.22 1302.62 2138.5 1302.17 2137.99 1301.73 2137.49 1301.13 2137.24 1300.38 2137.24 1300.02 2137.24 1299.63 2137.35 1299.2 2137.57 1298.76 2137.78 1298.37 2138.09 1298 2138.49 1297.63 2138.89 1297.37 2139.3 1297.22 2139.71 1297.06 2140.13 1296.96 2140.55 1296.91 2140.97 1296.86 2141.39 1296.84 2142.03 1296.84 2142.88L1296.84 2150.66C1296.84 2152.21 1296.9 2153.29 1297.01 2153.91 1297.12 2154.53 1297.35 2155.01 1297.69 2155.36 1298.04 2155.71 1298.61 2155.96 1299.43 2156.11L1299.43 2157.72 1287.39 2157.72 1287.39 2156.11C1288.17 2155.9 1288.71 2155.62 1289.02 2155.28 1289.32 2154.94 1289.52 2154.47 1289.63 2153.89 1289.73 2153.3 1289.78 2152.23 1289.78 2150.69L1289.78 2140.65C1289.78 2139.45 1289.76 2138.56 1289.72 2137.98 1289.68 2137.4 1289.58 2136.94 1289.43 2136.59 1289.28 2136.24 1289.04 2135.95 1288.72 2135.73 1288.4 2135.51 1287.86 2135.32 1287.07 2135.16L1287.07 2133.5 1293.76 2133.3 1296.84 2133.3 1296.5 2136.99 1296.82 2137.06C1298 2135.67 1299.22 2134.66 1300.48 2134.04 1301.73 2133.42 1303.09 2133.11 1304.55 2133.11Z" fill-rule="evenodd"/><text fill="#000000" fill-opacity="0" font-family="Arial,Arial_MSFontService,sans-serif" font-size="24.6094" x="1287.07" y="2154.64">๐ซ</text><path d="M1311.28 2151.75 1313.54 2151.75 1313.54 2168.39C1313.54 2169.81 1313.41 2171.01 1313.17 2172 1312.92 2172.98 1312.5 2173.84 1311.92 2174.59 1311.34 2175.34 1310.52 2175.99 1309.47 2176.55 1308.42 2177.11 1307.38 2177.53 1306.35 2177.82L1305.48 2175.71C1306.29 2175.38 1306.88 2175.05 1307.25 2174.72 1307.62 2174.38 1307.89 2173.95 1308.06 2173.42 1308.23 2172.9 1308.32 2172.18 1308.32 2171.26L1308.32 2156.22C1308.32 2155.37 1308.26 2154.77 1308.15 2154.42 1308.04 2154.06 1307.87 2153.79 1307.62 2153.6 1307.37 2153.42 1306.94 2153.26 1306.31 2153.13L1306.31 2151.9ZM1308.44 2144.69 1313.39 2144.69 1313.39 2149.11 1308.44 2149.11Z" fill-rule="evenodd"/><text fill="#000000" fill-opacity="0" font-family="Arial,Arial_MSFontService,sans-serif" font-size="33.1338" x="1305.48" y="2173.68">๐ฃ</text><path d="M1321.74 2114.04C1323 2114.04 1324.07 2114.18 1324.95 2114.47 1325.84 2114.75 1326.56 2115.13 1327.11 2115.61 1327.66 2116.1 1328.06 2116.67 1328.31 2117.35 1328.56 2118.02 1328.68 2118.75 1328.68 2119.53 1328.68 2120 1328.65 2120.44 1328.58 2120.84 1328.52 2121.25 1328.4 2121.64 1328.24 2122.04 1328.08 2122.43 1327.86 2122.82 1327.6 2123.22 1327.33 2123.62 1327 2124.04 1326.6 2124.48 1326.3 2124.87 1325.91 2125.32 1325.43 2125.82 1324.95 2126.33 1324.42 2126.87 1323.85 2127.45 1323.28 2128.03 1322.68 2128.63 1322.05 2129.25 1321.43 2129.88 1320.82 2130.5 1320.23 2131.11 1319.64 2131.73 1319.09 2132.32 1318.6 2132.9 1318.11 2133.48 1317.7 2134.01 1317.39 2134.49L1324.08 2134.49C1324.64 2134.49 1325.09 2134.47 1325.43 2134.43 1325.77 2134.39 1326.05 2134.29 1326.27 2134.15 1326.49 2134.01 1326.68 2133.79 1326.84 2133.49 1327 2133.2 1327.18 2132.79 1327.38 2132.27L1329.06 2132.27C1329 2133.13 1328.94 2133.99 1328.89 2134.85 1328.84 2135.72 1328.78 2136.58 1328.72 2137.44L1313.42 2137.44 1313.42 2136.5C1313.71 2135.85 1314.04 2135.21 1314.43 2134.57 1314.81 2133.94 1315.25 2133.3 1315.73 2132.65 1316.21 2132 1316.76 2131.33 1317.37 2130.64 1317.99 2129.94 1318.67 2129.22 1319.41 2128.48 1320.55 2127.34 1321.47 2126.38 1322.18 2125.58 1322.89 2124.78 1323.45 2124.06 1323.86 2123.44 1324.27 2122.81 1324.55 2122.23 1324.7 2121.7 1324.85 2121.17 1324.92 2120.61 1324.92 2120 1324.92 2119.39 1324.84 2118.82 1324.66 2118.31 1324.49 2117.79 1324.24 2117.35 1323.91 2116.99 1323.59 2116.63 1323.17 2116.34 1322.68 2116.14 1322.18 2115.93 1321.6 2115.83 1320.95 2115.83 1319.83 2115.83 1318.89 2116.13 1318.13 2116.74 1317.37 2117.35 1316.78 2118.23 1316.36 2119.39L1313.99 2119.39 1313.99 2115.87C1315.54 2115.23 1316.95 2114.76 1318.25 2114.48 1319.54 2114.19 1320.71 2114.04 1321.74 2114.04Z" fill-rule="evenodd"/><text fill="#000000" fill-opacity="0" font-family="Arial,Arial_MSFontService,sans-serif" font-size="23.396" x="1313.42" y="2134.51">2</text><path d="M1404.29 2133.11C1405.28 2133.11 1406.32 2133.22 1407.41 2133.43L1407.41 2140.17 1402.99 2140.17C1402.72 2139.22 1402.36 2138.5 1401.91 2137.99 1401.46 2137.49 1400.86 2137.24 1400.11 2137.24 1399.76 2137.24 1399.36 2137.35 1398.93 2137.57 1398.5 2137.78 1398.1 2138.09 1397.73 2138.49 1397.37 2138.89 1397.11 2139.3 1396.95 2139.71 1396.8 2140.13 1396.7 2140.55 1396.65 2140.97 1396.6 2141.39 1396.57 2142.03 1396.57 2142.88L1396.57 2150.66C1396.57 2152.21 1396.63 2153.29 1396.74 2153.91 1396.86 2154.53 1397.09 2155.01 1397.43 2155.36 1397.77 2155.71 1398.35 2155.96 1399.16 2156.11L1399.16 2157.72 1387.12 2157.72 1387.12 2156.11C1387.91 2155.9 1388.45 2155.62 1388.75 2155.28 1389.05 2154.94 1389.25 2154.47 1389.36 2153.89 1389.46 2153.3 1389.52 2152.23 1389.52 2150.69L1389.52 2140.65C1389.52 2139.45 1389.5 2138.56 1389.46 2137.98 1389.42 2137.4 1389.32 2136.94 1389.16 2136.59 1389.01 2136.24 1388.77 2135.95 1388.46 2135.73 1388.14 2135.51 1387.59 2135.32 1386.81 2135.16L1386.81 2133.5 1393.5 2133.3 1396.57 2133.3 1396.23 2136.99 1396.55 2137.06C1397.74 2135.67 1398.96 2134.66 1400.21 2134.04 1401.46 2133.42 1402.82 2133.11 1404.29 2133.11Z" fill-rule="evenodd"/><text fill="#000000" fill-opacity="0" font-family="Arial,Arial_MSFontService,sans-serif" font-size="24.6094" x="1386.81" y="2154.64">๐ซ</text><path d="M1411.01 2151.75 1413.27 2151.75 1413.27 2168.39C1413.27 2169.81 1413.15 2171.01 1412.9 2172 1412.65 2172.98 1412.24 2173.84 1411.65 2174.59 1411.07 2175.34 1410.25 2175.99 1409.2 2176.55 1408.16 2177.11 1407.12 2177.53 1406.08 2177.82L1405.21 2175.71C1406.02 2175.38 1406.61 2175.05 1406.98 2174.72 1407.36 2174.38 1407.63 2173.95 1407.8 2173.42 1407.96 2172.9 1408.05 2172.18 1408.05 2171.26L1408.05 2156.22C1408.05 2155.37 1407.99 2154.77 1407.89 2154.42 1407.78 2154.06 1407.6 2153.79 1407.35 2153.6 1407.11 2153.42 1406.67 2153.26 1406.04 2153.13L1406.04 2151.9ZM1408.18 2144.69 1413.13 2144.69 1413.13 2149.11 1408.18 2149.11Z" fill-rule="evenodd"/><text fill="#000000" fill-opacity="0" font-family="Arial,Arial_MSFontService,sans-serif" font-size="33.1338" x="1405.21" y="2173.68">๐ฃ</text><path d="M1421.81 2114.17 1422.91 2114.17C1422.89 2114.83 1422.87 2115.42 1422.86 2115.95 1422.85 2116.47 1422.84 2116.98 1422.83 2117.47 1422.82 2117.97 1422.82 2118.46 1422.82 2118.94L1422.82 2132.67C1422.82 2133.04 1422.83 2133.36 1422.86 2133.63 1422.88 2133.91 1422.92 2134.13 1422.98 2134.32 1423.03 2134.51 1423.1 2134.67 1423.19 2134.8 1423.28 2134.93 1423.39 2135.05 1423.51 2135.14 1423.65 2135.29 1423.85 2135.4 1424.09 2135.48 1424.33 2135.56 1424.63 2135.62 1425.01 2135.68 1425.38 2135.73 1425.83 2135.77 1426.35 2135.8 1426.88 2135.83 1427.51 2135.85 1428.24 2135.87L1428.24 2137.44 1413.92 2137.44 1413.92 2135.87C1414.63 2135.84 1415.23 2135.81 1415.72 2135.78 1416.22 2135.75 1416.64 2135.71 1416.99 2135.66 1417.34 2135.6 1417.62 2135.54 1417.83 2135.48 1418.04 2135.41 1418.22 2135.33 1418.38 2135.23 1418.55 2135.13 1418.69 2135.01 1418.81 2134.88 1418.93 2134.75 1419.03 2134.6 1419.1 2134.4 1419.17 2134.21 1419.23 2133.98 1419.27 2133.7 1419.31 2133.42 1419.33 2133.08 1419.33 2132.67L1419.33 2119.71C1419.33 2119.24 1419.24 2118.91 1419.06 2118.72 1418.88 2118.53 1418.62 2118.43 1418.29 2118.43 1417.91 2118.43 1417.36 2118.62 1416.62 2119.01 1415.89 2119.4 1414.94 2119.97 1413.77 2120.73 1413.61 2120.45 1413.47 2120.17 1413.34 2119.9 1413.2 2119.62 1413.07 2119.34 1412.92 2119.05 1414.41 2118.23 1415.89 2117.41 1417.36 2116.6 1418.82 2115.79 1420.3 2114.98 1421.81 2114.17Z" fill-rule="evenodd"/><text fill="#000000" fill-opacity="0" font-family="Arial,Arial_MSFontService,sans-serif" font-size="23.2695" x="1412.92" y="2134.53">1</text><path d="M1450.99 2130.06 1462.05 2141.09 1473.11 2130.06 1475.4 2132.33 1464.47 2143.46 1475.43 2154.55 1472.99 2156.99 1462.05 2145.83 1450.77 2156.89 1448.5 2154.59 1459.66 2143.46 1448.55 2132.5Z" fill-rule="evenodd"/><text fill="#000000" fill-opacity="0" font-family="Arial,Arial_MSFontService,sans-serif" font-size="26.9287" x="1448.5" y="2153.62">ร</text><path d="M1511.03 2133.11C1512.03 2133.11 1513.07 2133.22 1514.16 2133.43L1514.16 2140.17 1509.74 2140.17C1509.46 2139.22 1509.1 2138.5 1508.65 2137.99 1508.21 2137.49 1507.61 2137.24 1506.86 2137.24 1506.5 2137.24 1506.11 2137.35 1505.67 2137.57 1505.24 2137.78 1504.84 2138.09 1504.48 2138.49 1504.11 2138.89 1503.85 2139.3 1503.7 2139.71 1503.54 2140.13 1503.44 2140.55 1503.39 2140.97 1503.34 2141.39 1503.32 2142.03 1503.32 2142.88L1503.32 2150.66C1503.32 2152.21 1503.38 2153.29 1503.49 2153.91 1503.6 2154.53 1503.83 2155.01 1504.17 2155.36 1504.52 2155.71 1505.09 2155.96 1505.91 2156.11L1505.91 2157.72 1493.87 2157.72 1493.87 2156.11C1494.65 2155.9 1495.19 2155.62 1495.49 2155.28 1495.8 2154.94 1496 2154.47 1496.1 2153.89 1496.21 2153.3 1496.26 2152.23 1496.26 2150.69L1496.26 2140.65C1496.26 2139.45 1496.24 2138.56 1496.2 2137.98 1496.16 2137.4 1496.06 2136.94 1495.91 2136.59 1495.75 2136.24 1495.52 2135.95 1495.2 2135.73 1494.88 2135.51 1494.33 2135.32 1493.55 2135.16L1493.55 2133.5 1500.24 2133.3 1503.32 2133.3 1502.98 2136.99 1503.29 2137.06C1504.48 2135.67 1505.7 2134.66 1506.96 2134.04 1508.21 2133.42 1509.57 2133.11 1511.03 2133.11Z" fill-rule="evenodd"/><text fill="#000000" fill-opacity="0" font-family="Arial,Arial_MSFontService,sans-serif" font-size="24.6094" x="1493.55" y="2154.64">๐ซ</text><path d="M1517.76 2151.75 1520.02 2151.75 1520.02 2168.39C1520.02 2169.81 1519.89 2171.01 1519.65 2172 1519.4 2172.98 1518.98 2173.84 1518.4 2174.59 1517.81 2175.34 1517 2175.99 1515.95 2176.55 1514.9 2177.11 1513.86 2177.53 1512.83 2177.82L1511.96 2175.71C1512.77 2175.38 1513.36 2175.05 1513.73 2174.72 1514.1 2174.38 1514.37 2173.95 1514.54 2173.42 1514.71 2172.9 1514.79 2172.18 1514.79 2171.26L1514.79 2156.22C1514.79 2155.37 1514.74 2154.77 1514.63 2154.42 1514.52 2154.06 1514.35 2153.79 1514.1 2153.6 1513.85 2153.42 1513.42 2153.26 1512.79 2153.13L1512.79 2151.9ZM1514.92 2144.69 1519.87 2144.69 1519.87 2149.11 1514.92 2149.11Z" fill-rule="evenodd"/><text fill="#000000" fill-opacity="0" font-family="Arial,Arial_MSFontService,sans-serif" font-size="33.1338" x="1511.96" y="2173.68">๐ฃ</text><path d="M1528.22 2114.04C1529.48 2114.04 1530.55 2114.18 1531.43 2114.47 1532.32 2114.75 1533.04 2115.13 1533.59 2115.61 1534.14 2116.1 1534.54 2116.67 1534.79 2117.35 1535.04 2118.02 1535.16 2118.75 1535.16 2119.53 1535.16 2120 1535.13 2120.44 1535.06 2120.84 1535 2121.25 1534.88 2121.64 1534.72 2122.04 1534.56 2122.43 1534.34 2122.82 1534.08 2123.22 1533.81 2123.62 1533.48 2124.04 1533.08 2124.48 1532.78 2124.87 1532.39 2125.32 1531.91 2125.82 1531.43 2126.33 1530.9 2126.87 1530.33 2127.45 1529.76 2128.03 1529.16 2128.63 1528.53 2129.25 1527.9 2129.88 1527.3 2130.5 1526.71 2131.11 1526.12 2131.73 1525.57 2132.32 1525.08 2132.9 1524.59 2133.48 1524.18 2134.01 1523.87 2134.49L1530.55 2134.49C1531.12 2134.49 1531.57 2134.47 1531.91 2134.43 1532.25 2134.39 1532.53 2134.29 1532.75 2134.15 1532.97 2134.01 1533.16 2133.79 1533.32 2133.49 1533.48 2133.2 1533.66 2132.79 1533.86 2132.27L1535.54 2132.27C1535.48 2133.13 1535.42 2133.99 1535.37 2134.85 1535.31 2135.72 1535.26 2136.58 1535.2 2137.44L1519.9 2137.44 1519.9 2136.5C1520.18 2135.85 1520.52 2135.21 1520.91 2134.57 1521.29 2133.94 1521.73 2133.3 1522.21 2132.65 1522.69 2132 1523.24 2131.33 1523.85 2130.64 1524.47 2129.94 1525.15 2129.22 1525.89 2128.48 1527.03 2127.34 1527.95 2126.38 1528.66 2125.58 1529.37 2124.78 1529.93 2124.06 1530.34 2123.44 1530.75 2122.81 1531.03 2122.23 1531.18 2121.7 1531.33 2121.17 1531.4 2120.61 1531.4 2120 1531.4 2119.39 1531.32 2118.82 1531.14 2118.31 1530.97 2117.79 1530.72 2117.35 1530.39 2116.99 1530.07 2116.63 1529.65 2116.34 1529.15 2116.14 1528.65 2115.93 1528.08 2115.83 1527.43 2115.83 1526.31 2115.83 1525.37 2116.13 1524.61 2116.74 1523.85 2117.35 1523.26 2118.23 1522.84 2119.39L1520.47 2119.39 1520.47 2115.87C1522.02 2115.23 1523.43 2114.76 1524.73 2114.48 1526.02 2114.19 1527.19 2114.04 1528.22 2114.04Z" fill-rule="evenodd"/><text fill="#000000" fill-opacity="0" font-family="Arial,Arial_MSFontService,sans-serif" font-size="23.396" x="1519.9" y="2134.51">2</text><path d="M1561.96 2154.69 1566.23 2154.69C1566.46 2155.83 1566.57 2156.95 1566.57 2158.06 1566.57 2159.2 1566.38 2160.24 1565.99 2161.18 1565.6 2162.13 1564.97 2163.07 1564.12 2164 1563.27 2164.94 1562.09 2165.97 1560.59 2167.09L1559.27 2165.6C1560.1 2164.82 1560.71 2164.12 1561.08 2163.49 1561.46 2162.86 1561.72 2162.15 1561.89 2161.36 1562.05 2160.56 1562.13 2159.56 1562.13 2158.35 1562.13 2157.12 1562.07 2155.89 1561.96 2154.69Z" fill-rule="evenodd"/><text fill="#000000" fill-opacity="0" font-family="Arial,Arial_MSFontService,sans-serif" font-size="12.4023" x="1559.27" y="2165.54">,</text><path d="M1627.96 2135.94 1631.01 2135.94 1631.01 2158.43C1631.01 2160.35 1630.85 2161.97 1630.51 2163.3 1630.18 2164.62 1629.62 2165.79 1628.83 2166.8 1628.04 2167.81 1626.94 2168.69 1625.52 2169.45 1624.1 2170.21 1622.7 2170.78 1621.3 2171.17L1620.13 2168.31C1621.22 2167.87 1622.01 2167.43 1622.52 2166.97 1623.02 2166.51 1623.39 2165.93 1623.62 2165.23 1623.84 2164.52 1623.96 2163.54 1623.96 2162.31L1623.96 2141.97C1623.96 2140.83 1623.89 2140.02 1623.74 2139.54 1623.59 2139.06 1623.35 2138.7 1623.02 2138.44 1622.68 2138.19 1622.09 2137.97 1621.25 2137.8L1621.25 2136.14ZM1624.13 2126.39 1630.82 2126.39 1630.82 2132.38 1624.13 2132.38Z" fill-rule="evenodd"/><text fill="#000000" fill-opacity="0" font-family="Arial,Arial_MSFontService,sans-serif" font-size="44.7754" x="1620.13" y="2165.57">๐ฃ</text><path d="M1653.1 2149.51 1683.18 2149.51 1683.18 2152.76 1653.1 2152.76ZM1653.1 2139.38 1683.18 2139.38 1683.18 2142.63 1653.1 2142.63Z" fill-rule="evenodd"/><text fill="#000000" fill-opacity="0" font-family="Arial,Arial_MSFontService,sans-serif" font-size="13.3789" x="1653.1" y="2151.09">=</text><path d="M1702.08 2136.14 1713.9 2136.14 1713.9 2137.75C1712.87 2137.96 1712.36 2138.41 1712.36 2139.11 1712.36 2139.39 1712.43 2139.68 1712.58 2139.98 1712.73 2140.28 1712.96 2140.66 1713.29 2141.12L1715.8 2144.71 1718.29 2141.6C1718.68 2141.12 1718.96 2140.71 1719.11 2140.37 1719.26 2140.04 1719.34 2139.69 1719.34 2139.33 1719.34 2138.88 1719.18 2138.51 1718.84 2138.22 1718.51 2137.94 1718.06 2137.78 1717.49 2137.75L1717.49 2136.14 1726.79 2136.14 1726.79 2137.75C1726.06 2137.93 1725.38 2138.27 1724.76 2138.78 1724.14 2139.3 1723.25 2140.26 1722.08 2141.68L1717.39 2146.98 1723.1 2155.08C1724.06 2156.43 1724.81 2157.34 1725.35 2157.8 1725.89 2158.27 1726.45 2158.58 1727.06 2158.74L1727.06 2160.35 1715.17 2160.35 1715.17 2158.74C1716.18 2158.63 1716.68 2158.21 1716.68 2157.47 1716.68 2157.2 1716.63 2156.94 1716.52 2156.7 1716.42 2156.47 1716.18 2156.07 1715.8 2155.52L1713.04 2151.57 1710.48 2154.71C1709.93 2155.38 1709.58 2155.87 1709.44 2156.18 1709.3 2156.49 1709.23 2156.84 1709.23 2157.23 1709.23 2157.62 1709.38 2157.95 1709.67 2158.23 1709.97 2158.51 1710.43 2158.68 1711.07 2158.74L1711.07 2160.35 1701.67 2160.35 1701.67 2158.74C1702.37 2158.6 1703.07 2158.24 1703.78 2157.67 1704.49 2157.1 1705.34 2156.24 1706.35 2155.08L1711.46 2149.29 1705.72 2141.19C1704.84 2139.95 1704.14 2139.08 1703.61 2138.56 1703.08 2138.05 1702.57 2137.78 1702.08 2137.75Z" fill-rule="evenodd"/><text fill="#000000" fill-opacity="0" font-family="Arial,Arial_MSFontService,sans-serif" font-size="24.2188" x="1701.67" y="2157.33">๐ฑ</text><path d="M1730.9 2154.69 1735.17 2154.69C1735.4 2155.83 1735.52 2156.95 1735.52 2158.06 1735.52 2159.2 1735.32 2160.24 1734.93 2161.18 1734.54 2162.13 1733.92 2163.07 1733.06 2164 1732.21 2164.94 1731.03 2165.97 1729.53 2167.09L1728.22 2165.6C1729.05 2164.82 1729.65 2164.12 1730.02 2163.49 1730.4 2162.86 1730.67 2162.15 1730.83 2161.36 1730.99 2160.56 1731.07 2159.56 1731.07 2158.35 1731.07 2157.12 1731.02 2155.89 1730.9 2154.69Z" fill-rule="evenodd"/><text fill="#000000" fill-opacity="0" font-family="Arial,Arial_MSFontService,sans-serif" font-size="12.4023" x="1728.22" y="2165.54">,</text><path d="M1747.06 2136.14 1759.24 2136.14 1759.24 2137.75C1758.48 2137.89 1757.92 2138.11 1757.56 2138.41 1757.2 2138.7 1757.02 2139.14 1757.02 2139.72 1757.02 2140.51 1757.23 2141.52 1757.66 2142.78L1761.17 2153.45 1765.05 2144.09C1765.38 2143.31 1765.62 2142.63 1765.79 2142.03 1765.95 2141.44 1766.03 2140.86 1766.03 2140.29 1766.03 2139.6 1765.84 2139.04 1765.44 2138.59 1765.05 2138.14 1764.5 2137.86 1763.78 2137.75L1763.78 2136.14 1773.28 2136.14 1773.28 2137.77C1772.74 2137.95 1772.3 2138.19 1771.95 2138.48 1771.6 2138.77 1771.21 2139.28 1770.78 2140.01 1770.35 2140.73 1769.74 2141.97 1768.96 2143.73L1761 2161.45C1760.2 2163.23 1759.43 2164.74 1758.67 2165.98 1757.91 2167.23 1757.15 2168.22 1756.37 2168.95 1755.6 2169.68 1754.79 2170.21 1753.93 2170.54 1753.08 2170.86 1752.08 2171.02 1750.94 2171.02 1749.72 2171.02 1748.58 2170.87 1747.52 2170.56L1747.52 2164.97 1750.26 2164.97C1750.47 2165.73 1750.74 2166.26 1751.05 2166.54 1751.37 2166.83 1751.81 2166.97 1752.38 2166.97 1753 2166.97 1753.56 2166.8 1754.06 2166.46 1754.55 2166.12 1755.11 2165.48 1755.74 2164.54 1756.37 2163.61 1757.14 2162.21 1758.05 2160.35L1756.66 2160.35 1750.28 2142.02C1749.83 2140.73 1749.47 2139.85 1749.2 2139.37 1748.93 2138.89 1748.63 2138.52 1748.29 2138.27 1747.96 2138.02 1747.55 2137.84 1747.06 2137.75Z" fill-rule="evenodd"/><text fill="#000000" fill-opacity="0" font-family="Arial,Arial_MSFontService,sans-serif" font-size="34.8877" x="1747.06" y="2166.66">๐ฒ</text><path d="M1777.12 2154.69 1781.4 2154.69C1781.62 2155.83 1781.74 2156.95 1781.74 2158.06 1781.74 2159.2 1781.54 2160.24 1781.15 2161.18 1780.76 2162.13 1780.14 2163.07 1779.28 2164 1778.43 2164.94 1777.25 2165.97 1775.76 2167.09L1774.44 2165.6C1775.27 2164.82 1775.87 2164.12 1776.25 2163.49 1776.62 2162.86 1776.89 2162.15 1777.05 2161.36 1777.21 2160.56 1777.3 2159.56 1777.3 2158.35 1777.3 2157.12 1777.24 2155.89 1777.12 2154.69Z" fill-rule="evenodd"/><text fill="#000000" fill-opacity="0" font-family="Arial,Arial_MSFontService,sans-serif" font-size="12.4023" x="1774.44" y="2165.54">,</text><path d="M1828.78 2142.92C1829.63 2142.92 1830.34 2143.22 1830.91 2143.81 1831.48 2144.41 1831.76 2145.16 1831.76 2146.07 1831.76 2146.98 1831.48 2147.74 1830.91 2148.33 1830.34 2148.92 1829.63 2149.22 1828.78 2149.22 1827.94 2149.22 1827.23 2148.92 1826.66 2148.33 1826.09 2147.74 1825.8 2146.98 1825.8 2146.07 1825.8 2145.16 1826.09 2144.41 1826.66 2143.81 1827.23 2143.22 1827.94 2142.92 1828.78 2142.92ZM1813.99 2142.92C1814.83 2142.92 1815.54 2143.22 1816.11 2143.81 1816.68 2144.41 1816.97 2145.16 1816.97 2146.07 1816.97 2146.98 1816.68 2147.74 1816.11 2148.33 1815.54 2148.92 1814.83 2149.22 1813.99 2149.22 1813.14 2149.22 1812.43 2148.92 1811.86 2148.33 1811.29 2147.74 1811.01 2146.98 1811.01 2146.07 1811.01 2145.16 1811.29 2144.41 1811.86 2143.81 1812.43 2143.22 1813.14 2142.92 1813.99 2142.92ZM1799.19 2142.92C1800.04 2142.92 1800.75 2143.22 1801.32 2143.81 1801.89 2144.41 1802.17 2145.16 1802.17 2146.07 1802.17 2146.98 1801.89 2147.74 1801.32 2148.33 1800.75 2148.92 1800.04 2149.22 1799.19 2149.22 1798.35 2149.22 1797.64 2148.92 1797.07 2148.33 1796.5 2147.74 1796.21 2146.98 1796.21 2146.07 1796.21 2145.16 1796.5 2144.41 1797.07 2143.81 1797.64 2143.22 1798.35 2142.92 1799.19 2142.92Z" fill-rule="evenodd"/><text fill="#000000" fill-opacity="0" font-family="Arial,Arial_MSFontService,sans-serif" font-size="6.29883" x="1796.21" y="2148.43">โฏ</text><path d="M1847.23 2154.69 1851.5 2154.69C1851.73 2155.83 1851.84 2156.95 1851.84 2158.06 1851.84 2159.2 1851.65 2160.24 1851.25 2161.18 1850.86 2162.13 1850.24 2163.07 1849.39 2164 1848.53 2164.94 1847.36 2165.97 1845.86 2167.09L1844.54 2165.6C1845.37 2164.82 1845.97 2164.12 1846.35 2163.49 1846.72 2162.86 1846.99 2162.15 1847.15 2161.36 1847.32 2160.56 1847.4 2159.56 1847.4 2158.35 1847.4 2157.12 1847.34 2155.89 1847.23 2154.69Z" fill-rule="evenodd"/><text fill="#000000" fill-opacity="0" font-family="Arial,Arial_MSFontService,sans-serif" font-size="12.4023" x="1844.54" y="2165.54">,</text><path d="M1864.83 2136.14 1885.38 2136.14 1885.38 2137.75 1872.88 2157.77 1878.03 2157.77C1878.77 2157.77 1879.39 2157.61 1879.9 2157.3 1880.41 2156.99 1880.88 2156.46 1881.29 2155.69 1881.71 2154.93 1882.09 2153.86 1882.43 2152.49L1885.41 2152.49 1885.41 2160.35 1864.66 2160.35 1864.66 2158.74 1877.16 2138.72 1872.3 2138.72C1871.52 2138.72 1870.89 2138.85 1870.42 2139.11 1869.94 2139.37 1869.52 2139.81 1869.14 2140.43 1868.75 2141.05 1868.31 2142.09 1867.8 2143.56L1864.83 2143.56Z" fill-rule="evenodd"/><text fill="#000000" fill-opacity="0" font-family="Arial,Arial_MSFontService,sans-serif" font-size="24.2188" x="1864.66" y="2157.33">๐ณ</text><path d="M1320.5 2021.5 1350.75 2021.5 1350.75 1965.5 1411.25 1965.5 1411.25 2021.5 1441.5 2021.5 1381 2077.5Z" stroke="#80350E" stroke-width="6.875" stroke-miterlimit="8" fill="#FBE3D6" fill-rule="evenodd"/><text font-family="Cambria Math,Cambria Math_MSFontService,sans-serif" font-weight="400" font-size="50" transform="matrix(1 0 0 1 1063.63 2292)">๐</text><text font-family="Cambria Math,Cambria Math_MSFontService,sans-serif" font-weight="400" font-size="37" transform="matrix(1 0 0 1 1101.15 2302)">๐ฑ</text><text font-family="Cambria Math,Cambria Math_MSFontService,sans-serif" font-weight="400" font-size="37" transform="matrix(1 0 0 1 1098.01 2273)">โ</text><text font-family="Cambria Math,Cambria Math_MSFontService,sans-serif" font-weight="400" font-size="37" transform="matrix(1 0 0 1 1124.93 2273)">1</text><rect x="1209.5" y="2360.5" width="385" height="386" stroke="#042433" stroke-width="6.875" stroke-miterlimit="8" fill="none"/><rect x="1259.5" y="2406.5" width="81.0001" height="81.9998" stroke="#C00000" stroke-width="6.875" stroke-miterlimit="8" fill="#FF7C80"/><rect x="1472.5" y="2408.5" width="79.9998" height="79.9998" stroke="#163E64" stroke-width="6.875" stroke-miterlimit="8" fill="#4E95D9"/><path d="M1300.5 2724.66 1300.5 2651.5" stroke="#000000" stroke-width="17.1875" stroke-miterlimit="8" fill="none" fill-rule="evenodd"/><rect x="1230" y="2560" width="139" height="99"/><rect x="1254" y="2547" width="92.0001" height="92.0002" fill="#FFFFFF"/><rect x="1756.5" y="2360.5" width="386" height="386" stroke="#042433" stroke-width="6.875" stroke-miterlimit="8" fill="none"/><rect x="1806.5" y="2406.5" width="82.0001" height="81.9998" stroke="#C00000" stroke-width="6.875" stroke-miterlimit="8" fill="#FF7C80"/><rect x="2019.5" y="2408.5" width="80.0001" height="79.9998" stroke="#163E64" stroke-width="6.875" stroke-miterlimit="8" fill="#4E95D9"/><path d="M1847.5 2724.66 1847.5 2651.5" stroke="#000000" stroke-width="17.1875" stroke-miterlimit="8" fill="none" fill-rule="evenodd"/><rect x="1777" y="2560" width="139" height="99"/><rect x="1801" y="2547" width="92.0001" height="92.0002" fill="#FFFFFF"/><path d="M1657.69 2548.95C1656.46 2548.95 1655.42 2548.51 1654.59 2547.65 1653.76 2546.78 1653.34 2545.68 1653.34 2544.35 1653.34 2543.02 1653.76 2541.92 1654.59 2541.05 1655.42 2540.18 1656.46 2539.75 1657.69 2539.75 1658.93 2539.75 1659.96 2540.18 1660.79 2541.05 1661.62 2541.92 1662.04 2543.02 1662.04 2544.35 1662.04 2545.68 1661.62 2546.78 1660.79 2547.65 1659.96 2548.51 1658.93 2548.95 1657.69 2548.95ZM1679.29 2548.95C1678.06 2548.95 1677.02 2548.51 1676.19 2547.65 1675.36 2546.78 1674.94 2545.68 1674.94 2544.35 1674.94 2543.02 1675.36 2541.92 1676.19 2541.05 1677.02 2540.18 1678.06 2539.75 1679.29 2539.75 1680.53 2539.75 1681.56 2540.18 1682.39 2541.05 1683.23 2541.92 1683.64 2543.02 1683.64 2544.35 1683.64 2545.68 1683.23 2546.78 1682.39 2547.65 1681.56 2548.51 1680.53 2548.95 1679.29 2548.95ZM1700.89 2548.95C1699.66 2548.95 1698.62 2548.51 1697.79 2547.65 1696.96 2546.78 1696.54 2545.68 1696.54 2544.35 1696.54 2543.02 1696.96 2541.92 1697.79 2541.05 1698.62 2540.18 1699.66 2539.75 1700.89 2539.75 1702.13 2539.75 1703.16 2540.18 1703.99 2541.05 1704.83 2541.92 1705.24 2543.02 1705.24 2544.35 1705.24 2545.68 1704.83 2546.78 1703.99 2547.65 1703.16 2548.51 1702.13 2548.95 1700.89 2548.95Z" fill-rule="evenodd"/><text fill="#000000" fill-opacity="0" font-family="Arial,Arial_MSFontService,sans-serif" font-size="9.19629" x="1653.34" y="2547.8">โฏ</text><text font-family="Cambria Math,Cambria Math_MSFontService,sans-serif" font-weight="400" font-size="50" transform="matrix(1 0 0 1 1474.02 2296)">๐</text><text font-family="Cambria Math,Cambria Math_MSFontService,sans-serif" font-weight="400" font-size="37" transform="matrix(1 0 0 1 1511.54 2306)">๐ฒ</text><text font-family="Cambria Math,Cambria Math_MSFontService,sans-serif" font-weight="400" font-size="37" transform="matrix(1 0 0 1 1508.4 2277)">โ</text><text font-family="Cambria Math,Cambria Math_MSFontService,sans-serif" font-weight="400" font-size="37" transform="matrix(1 0 0 1 1535.32 2277)">1</text><text font-family="Cambria Math,Cambria Math_MSFontService,sans-serif" font-weight="400" font-size="50" transform="matrix(1 0 0 1 2061.11 2292)">๐</text><text font-family="Cambria Math,Cambria Math_MSFontService,sans-serif" font-weight="400" font-size="37" transform="matrix(1 0 0 1 2097.45 2302)">๐</text><text font-family="Cambria Math,Cambria Math_MSFontService,sans-serif" font-weight="400" font-size="37" transform="matrix(1 0 0 1 2095.48 2273)">โ</text><text font-family="Cambria Math,Cambria Math_MSFontService,sans-serif" font-weight="400" font-size="37" transform="matrix(1 0 0 1 2122.41 2273)">1</text><text font-family="Cambria Math,Cambria Math_MSFontService,sans-serif" font-weight="400" font-size="50" transform="matrix(1 0 0 1 1784.22 2822)">๐ข</text><text font-family="Cambria Math,Cambria Math_MSFontService,sans-serif" font-weight="400" font-size="37" transform="matrix(1 0 0 1 1812.45 2834)">๐</text><text font-family="Cambria Math,Cambria Math_MSFontService,sans-serif" font-weight="400" font-size="37" transform="matrix(1 0 0 1 1817.08 2801)">cano</text><text font-family="Arial,Arial_MSFontService,sans-serif" font-weight="400" font-size="50" transform="matrix(1 0 0 1 1169.76 2827)">Canonical Representation:</text><path d="M905.5 2021.5 935.75 2021.5 935.75 1965.5 996.25 1965.5 996.25 2021.5 1026.5 2021.5 966 2077.5Z" stroke="#80350E" stroke-width="6.875" stroke-miterlimit="8" fill="#FBE3D6" fill-rule="evenodd"/><path d="M1899.5 2021.5 1929.75 2021.5 1929.75 1965.5 1990.25 1965.5 1990.25 2021.5 2020.5 2021.5 1960 2077.5Z" stroke="#80350E" stroke-width="6.875" stroke-miterlimit="8" fill="#FBE3D6" fill-rule="evenodd"/><path d="M1897.5 2276.5 1927.75 2276.5 1927.75 2220.5 1988.25 2220.5 1988.25 2276.5 2018.5 2276.5 1958 2332.5Z" stroke="#80350E" stroke-width="6.875" stroke-miterlimit="8" fill="#FBE3D6" fill-rule="evenodd"/><path d="M1317.5 2276.5 1347.75 2276.5 1347.75 2220.5 1408.25 2220.5 1408.25 2276.5 1438.5 2276.5 1378 2332.5Z" stroke="#80350E" stroke-width="6.875" stroke-miterlimit="8" fill="#FBE3D6" fill-rule="evenodd"/><path d="M904.5 2276.5 935 2276.5 935 2220.5 996 2220.5 996 2276.5 1026.5 2276.5 965.5 2332.5Z" stroke="#80350E" stroke-width="6.875" stroke-miterlimit="8" fill="#FBE3D6" fill-rule="evenodd"/></g></svg>